<svg width="24" height="24" xmlns="http://www.w3.org/2000/svg"><g id="Symbols" stroke="none" stroke-width="1" fill="none" fill-rule="evenodd"><g id="General/Icons/Icon-24x24---Account" fill="#23201F" fill-rule="nonzero"><path d="M12 12c.896 0 1.728-.224 2.496-.672a4.986 4.986 0 0 0 1.824-1.824c.448-.768.672-1.6.672-2.496 0-.896-.224-1.728-.672-2.496a4.986 4.986 0 0 0-1.824-1.824A4.868 4.868 0 0 0 12 2.016c-1.376 0-2.552.488-3.528 1.464S7.008 5.632 7.008 7.008s.488 2.552 1.464 3.528S10.624 12 12 12Zm0-1.488c-.64 0-1.224-.16-1.752-.48a3.657 3.657 0 0 1-1.272-1.296 3.397 3.397 0 0 1-.48-1.752c0-.624.16-1.2.48-1.728.32-.528.744-.952 1.272-1.272A3.315 3.315 0 0 1 12 3.504c.96 0 1.784.344 2.472 1.032.688.688 1.032 1.512 1.032 2.472s-.344 1.784-1.032 2.472c-.688.688-1.512 1.032-2.472 1.032Zm0 11.472c3.168 0 5.536-.912 7.104-2.736.608-.704.912-1.52.912-2.448v-.528c0-.64-.224-1.176-.672-1.608a2.207 2.207 0 0 0-1.584-.648H6.24c-.608 0-1.136.216-1.584.648-.448.432-.672.968-.672 1.608v.576c0 .896.304 1.696.912 2.4 1.568 1.824 3.936 2.736 7.104 2.736Zm0-1.488c-2.72 0-4.704-.736-5.952-2.208a2.164 2.164 0 0 1-.528-1.44v-.576c0-.224.072-.408.216-.552a.69.69 0 0 1 .504-.216h11.52a.69.69 0 0 1 .504.216.748.748 0 0 1 .216.552v.528c0 .576-.176 1.072-.528 1.488-1.248 1.472-3.232 2.208-5.952 2.208Z" id=""/></g></g></svg>