<svg width="24" height="24" xmlns="http://www.w3.org/2000/svg"><g id="Symbols" stroke="none" stroke-width="1" fill="none" fill-rule="evenodd"><g id="General/Icons/Icon-24x24---Calendar"><path d="M17.525 22.057c1.115 0 2.061-.389 2.839-1.166.777-.777 1.165-1.723 1.165-2.838V7.003c0-1.115-.388-2.062-1.165-2.839-.778-.777-1.724-1.166-2.839-1.166H6.475c-1.115 0-2.053.389-2.813 1.166-.76.777-1.14 1.724-1.14 2.839H2.47v11.05c0 1.115.388 2.053 1.165 2.813.778.76 1.724 1.157 2.839 1.191h11.05Zm2.382-14.294H4.093v-.76c0-.676.228-1.242.684-1.698.456-.457 1.022-.685 1.698-.685h11.05c.676 0 1.242.228 1.698.685.456.456.684 1.022.684 1.698v.76Zm-2.382 12.672H6.475c-.676 0-1.242-.228-1.698-.684-.456-.456-.684-1.022-.684-1.698V9.334h15.814v8.719c0 .676-.228 1.242-.684 1.698-.456.456-1.022.684-1.698.684Zm-9.884-6.336c.338 0 .617-.11.836-.33.22-.22.338-.498.355-.836a1.09 1.09 0 0 0-.33-.862 1.173 1.173 0 0 0-.861-.354c-.338 0-.617.118-.837.354a1.22 1.22 0 0 0-.329.862c0 .338.11.617.33.837.22.22.498.329.836.329Zm4.359 0c.338 0 .617-.11.836-.33.22-.22.33-.498.33-.836 0-.338-.11-.625-.33-.862a1.092 1.092 0 0 0-.836-.354c-.338 0-.617.118-.836.354a1.22 1.22 0 0 0-.33.862c0 .338.11.617.33.837.22.22.498.329.836.329Zm4.36 0c.337 0 .616-.11.836-.33.22-.22.329-.498.329-.836 0-.338-.11-.625-.33-.862a1.092 1.092 0 0 0-.836-.354c-.338 0-.617.118-.836.354a1.22 1.22 0 0 0-.33.862c0 .338.11.617.33.837.22.22.498.329.836.329Zm-8.72 3.954c.339 0 .626-.11.863-.33.236-.22.354-.498.354-.836h-.05c0-.338-.11-.625-.33-.862a1.017 1.017 0 0 0-.836-.33 1.225 1.225 0 0 0-.837.355c-.22.22-.329.499-.329.837 0 .338.11.617.33.836.22.22.498.33.836.33Zm4.36 0c.338 0 .617-.11.836-.33.22-.22.33-.498.33-.836 0-.338-.11-.617-.33-.837a1.225 1.225 0 0 0-.836-.354 1.017 1.017 0 0 0-.836.33 1.22 1.22 0 0 0-.33.86c0 .339.11.618.33.837.22.22.498.33.836.33Z" id="ﶰ" fill="#23201F" fill-rule="nonzero"/><g id="Group" transform="translate(6.625 1.943)" stroke="#23201F" stroke-linecap="round" stroke-width="1.3"><path id="Line" d="M.5.055V2"/><path id="Line-Copy" d="M10.25.055V2"/></g></g></g></svg>