<svg width="24" height="24" xmlns="http://www.w3.org/2000/svg"><g id="Symbols" stroke="none" stroke-width="1" fill="none" fill-rule="evenodd"><g id="General/Icons/Icon-24x24---Card"><path d="M20.398 20.398c.784 0 1.446-.27 1.988-.812.54-.54.811-1.203.811-1.987V6.4c0-.784-.27-1.446-.811-1.987-.542-.541-1.204-.812-1.988-.812H3.602c-.784 0-1.446.27-1.988.812-.54.54-.811 1.203-.811 1.987V17.6c0 .784.27 1.446.811 1.987.542.541 1.204.812 1.988.812h16.796Zm1.4-6.998H2.202V6.4c0-.373.14-.7.42-.98.28-.28.607-.42.98-.42h16.796c.373 0 .7.14.98.42.28.28.42.607.42.98V13.4Zm-1.4 5.598H3.602c-.373 0-.7-.14-.98-.42-.28-.28-.42-.606-.42-.98V14.8h19.596v2.8c0 .373-.14.7-.42.98-.28.28-.607.42-.98.42Z" id="i" fill="#23201F" fill-rule="nonzero" transform="matrix(1 0 0 -1 0 24)"/><path id="Line" stroke="#23201F" stroke-width="1.3" stroke-linecap="round" d="M14.439 15.916h4"/></g></g></svg>