<svg fill="none" viewBox="0 0 32 32" xmlns="http://www.w3.org/2000/svg"><path d="m32 32h-15.9042-16.0958v-16.159-15.841h15.8815 16.1185v15.9984z" fill="#fff"/><path d="m32 32v-5.0705h-3.8605l-1.9876-2.1978-1.9977 2.1978h-12.7285v-10.243h-4.1082l5.0958-11.53232h4.9144l1.7544 3.95078v-3.95078h6.0831l1.0562 2.97715 1.0631-2.97715h4.7155v-5.15418h-32v32zm-3.2102-6.353h3.2102l-4.2466-4.5033 4.2466-4.4521h-3.1592l-2.6225 2.8658-2.5973-2.8658h-3.211l4.2217 4.4777-4.2217 4.4777h3.1216l2.6354-2.8913zm.751-4.4995 2.4592 2.6163v-5.2107zm-14.3121 2.427v-1.3945h5.0532v-2.0214h-5.0532v-1.3944h5.1811l.0002-2.0726h-7.625v8.9554h7.625l-.0002-2.0725zm14.3533-8.1824h2.418v-8.95543h-3.7613l-2.0087 5.57783-1.9957-5.57783h-3.8251v8.95543h2.4178v-6.26877l2.3029 6.26877h2.1492l2.3029-6.2817zm-11.9234 0h2.7506l-3.953-8.95543h-3.1473l-3.95331 8.95543h2.68661l.7422-1.7911h4.1193zm-1.5991-3.7997h-2.4309l1.2155-2.92968z" fill="#006fcf"/></svg>