<svg viewBox="0 0 40 27" xmlns="http://www.w3.org/2000/svg"><g fill="none" transform="translate(.003122 .687332)"><path d="m36.4229471.01124859h-32.84589423c-.13498313 0-.26996626 0-.40494938 0-.11248594 0-.22497188 0-.34870641 0-.24746907.0112486-.50618673.02249719-.7536558.06749157-.24746906.04499437-.49493813.12373453-.71991001.23622047-.44994376.22497188-.82114735.59617548-1.04611923 1.04611924-.11248594.22497187-.1912261.46119235-.23622048.71991001-.04499437.24746906-.05624297.50618672-.06749156.75365579v.34870641.40494938 18.44769404.416198.3487064c.01124859.2474691.02249719.5061867.06749156.7536558.04499438.247469.12373454.4949381.23622048.71991s.25871766.4274466.43869516.6074241.38245219.3262092.60742407.4386951c.22497188.112486.46119235.1912261.71991001.2362205.24746907.0449944.50618673.056243.7536558.0674916h.34870641.40494938 32.84589423.4049494.3487064c.2474691-.0112486.5061868-.0224972.7536558-.0674916.2474691-.0449944.4949382-.1237345.71991-.2362205.4499438-.2362204.8211474-.5961755 1.0461193-1.0461192.1124859-.2249719.1912261-.4611924.2362204-.71991.0449944-.2474691.056243-.5061867.0674916-.7536558 0-.112486 0-.2249719 0-.3487064 0-.1349832 0-.2699663 0-.416198v-18.44769404c0-.13498312 0-.26996625 0-.41619797 0-.11248594 0-.22497188 0-.34870641-.0112486-.24746907-.0224972-.50618673-.0674916-.7536558-.0449943-.24746906-.1237345-.49493813-.2362204-.71991001-.2249719-.44994376-.5961755-.82114735-1.0461193-1.04611923-.2249718-.11248594-.4611923-.1912261-.71991-.23622048-.247469-.04499437-.5061867-.05624297-.7536558-.06749156-.1124859 0-.2249719 0-.3487064 0-.1349831.01124859-.2699662.01124859-.4049494.01124859z" fill="#010202"/><path d="m36.4229471.86614173h.4049494.3262092c.1912261 0 .416198.0112486.6299213.05624297.1799775.03374578.3374578.07874016.4836895.15748032.2924635.14623172.5286839.38245219.6749157.67491563.0787401.14623172.1237345.29246344.1574803.48368954.0337458.20247469.0449944.42744657.056243.61867267v.32620922.40494938 18.44769404.4049494.3262092c0 .1912261-.0112486.416198-.056243.6299213-.0224972.1687289-.0787402.3262092-.1574803.4724409-.1462318.2924635-.3824522.5286839-.6749157.6749156-.1462317.0787402-.2924634.1237346-.4724409.1574804-.2137233.0337457-.4499438.0449943-.6186727.0562429-.1124859 0-.2249719 0-.3374578 0-.1349831 0-.2699662 0-.4049494 0h-32.84589424c-.13498312 0-.26996625 0-.40494938 0-.11248594 0-.21372328 0-.32620922 0-.17997751 0-.41619798-.0112486-.62992126-.0562429-.16872891-.0224972-.32620923-.0787402-.48368954-.1574804-.14623172-.0787401-.28121485-.1687289-.39370079-.2812148s-.21372328-.2474691-.28121485-.3937008c-.07874015-.1462317-.12373453-.3149606-.15748031-.4836895-.03374578-.2137233-.04499438-.4274466-.05624297-.6186727 0-.1124859 0-.2137233 0-.3262092v-.3262092-18.6051744-.31496063c0-.11248593 0-.21372328 0-.32620922 0-.1912261.01124859-.41619797.05624297-.62992126.02249719-.16872891.07874016-.32620922.15748031-.48368954.07874016-.14623172.16872891-.28121485.28121485-.39370078.11248594-.11248594.24746907-.21372329.39370079-.28121485.14623172-.07874016.31496063-.12373454.48368954-.15748032.21372328-.03374578.43869516-.04499437.62992126-.05624297h.32620922.40494938z" fill="#fff"/><g fill="#010202"><g transform="translate(5.077255 7.086614)"><path d="m5.44018066 1.57480315c.33745782-.42744657.57367829-.98987627.50618673-1.57480315-.49493814.02249719-1.10236221.32620922-1.45106862.75365579-.31496063.35995501-.59617548.95613049-.51743532 1.51856018.5511811.04499438 1.1136108-.28121485 1.46231721-.69741282"/><path d="m5.93511879 2.37345332c-.80989876-.04499438-1.49606299.46119235-1.87851518.46119235-.3824522 0-.97862767-.43869516-1.61979753-.42744657-.83239595.01124859-1.60854893.48368954-2.0247469 1.23734533-.86614174 1.49606299-.22497188 3.72328459.61867266 4.93813274.41619798.60742407.91113611 1.27109111 1.55230596 1.24859392.61867267-.02249719.85489314-.39370079 1.60854893-.39370079.7536558 0 .96737908.39370079 1.61979753.3824522.67491563-.0112486 1.1023622-.60742407 1.50731159-1.20359955.47244094-.68616423.66366704-1.34983127.67491563-1.39482565-.01124859-.01124859-1.30483689-.50618673-1.31608549-1.99100112-.01124859-1.24859393 1.01237345-1.83352081 1.06861642-1.87851519-.58492688-.85489314-1.49606299-.95613048-1.81102362-.97862767"/></g><g transform="translate(15.691789 7.772778)"><path d="m3.39707537 0c1.75478065 0 2.98087739 1.21484814 2.98087739 2.98087739 0 1.77727784-1.24859393 2.99212598-3.02587177 2.99212598h-1.94600675v3.09336333h-1.40607424v-9.0663667zm-1.99100113 4.79190101h1.61979753c1.22609673 0 1.92350956-.66366704 1.92350956-1.79977503 0-1.14735658-.69741283-1.79977502-1.91226097-1.79977502h-1.61979753c-.01124859 0-.01124859 3.59955005-.01124859 3.59955005z"/><path d="m6.72665917 7.18785152c0-1.15860518.88863892-1.83352081 2.51968504-1.92350956l1.75478069-.10123735v-.50618672c0-.73115861-.4836896-1.13610799-1.34983131-1.13610799-.70866142 0-1.22609674.359955-1.32733408.9223847h-1.27109112c.03374578-1.16985377 1.14735658-2.02474691 2.64341957-2.02474691 1.60854894 0 2.65466814.84364455 2.65466814 2.14848144v4.51068617h-1.3048369v-1.09111361h-.0337457c-.3712036.70866141-1.192351 1.15860517-2.06974133 1.15860517-1.30483689-.01124859-2.215973-.78740157-2.215973-1.95725534zm4.27446573-.58492689v-.50618672l-1.5635546.10123734c-.87739032.05624297-1.33858267.3824522-1.33858267.95613049 0 .5511811.47244094.9111361 1.22609673.9111361.95613044 0 1.67604054-.60742407 1.67604054-1.46231721z"/><path d="m13.5433071 11.496063v-1.0911136c.0899887.0112486.303712.0224972.416198.0224972.6186726 0 .9786276-.2587177 1.1923509-.94488192l.1237346-.40494938-2.384702-6.59167604h1.4735658l1.6535434 5.35433071h.0337457l1.6535433-5.35433071h1.4398201l-2.4746907 6.92913386c-.5624297 1.58605178-1.2148481 2.11473568-2.5871766 2.11473568-.1012374 0-.4386952-.0112486-.5399325-.0337458z"/></g></g></g></svg>