<?xml version="1.0" encoding="utf-8"?>
<!-- Generator: Adobe Illustrator 22.0.1, SVG Export Plug-In . SVG Version: 6.00 Build 0)  -->
<svg version="1.1" id="Layer_1" xmlns="http://www.w3.org/2000/svg" xmlns:xlink="http://www.w3.org/1999/xlink" x="0px" y="0px"
     viewBox="0 0 326.1 230.5" style="enable-background:new 0 0 326.1 230.5;" xml:space="preserve">
<style type="text/css">
	.st0{fill:#FFFFFF;}
	.st1{fill:#004E91;}
	.st2{fill:#FFDD00;}
	.st3{fill:none;}
</style>
    <g>
	<g>
		<path class="st0" d="M326.1,210.7c0,10.9-8.9,19.8-19.8,19.8H19.8C8.9,230.5,0,221.6,0,210.7V19.8C0,8.9,8.9,0,19.8,0h286.4
			c10.9,0,19.8,8.9,19.8,19.8V210.7z"/>
	</g>
        <g>
		<path class="st1" d="M262,64.4h-11.8h-54.6h-11.8l-8,9l-25.8,29.1v0l-8,9h-11.8H76.6H64.8l7.8-9.1l3.7-4.3l7.8-9.1H72.3H57.1h-8.5
			c-6.5,0-11.8,5.5-11.8,12.1v0v23.4v2.2c0,6.7,5.3,12.1,11.8,12.1h3.3h124h8.9c6.5,0,15.4-4.1,19.7-9l20.6-23.4L262,64.4z"/>
            <path class="st2" d="M277.7,37.1c6.5,0,11.8,5.5,11.8,12.1v25.6c0,6.7-5.3,12.1-11.8,12.1h-6.4H254h-11.8l7.9-9c0,0,0,0,0,0
			l3.9-4.5l7.9-9h-78.2l-41.7,47H64.3l55.7-63l2.1-2.4c4.4-4.9,13.3-9,19.8-9h2.7H277.7z"/>
	</g>
        <path class="st1" d="M289.5,192.4v-3.7c0-0.5-0.3-0.8-1-0.8h-2.4c-0.7,0-1.2-0.1-1.3-0.4c-0.2-0.3-0.2-0.9-0.2-1.9v-14h3.9
		c0.3,0,0.5-0.1,0.7-0.3c0.2-0.2,0.3-0.4,0.3-0.7v-3.9c0-0.3-0.1-0.5-0.3-0.7c-0.2-0.2-0.4-0.3-0.7-0.3h-3.9v-5.1
		c0-0.3-0.1-0.5-0.2-0.6c-0.2-0.1-0.4-0.2-0.6-0.2h-0.1l-5.8,1c-0.3,0.1-0.5,0.2-0.7,0.3c-0.2,0.2-0.3,0.4-0.3,0.6v3.9h-3.9
		c-0.3,0-0.5,0.1-0.7,0.3c-0.2,0.2-0.3,0.4-0.3,0.7v3.2c0,0.3,0.1,0.5,0.3,0.6c0.2,0.2,0.4,0.3,0.7,0.4l3.9,0.6v14
		c0,1.7,0.2,3.1,0.5,4.2c0.4,1.1,0.9,1.9,1.5,2.5c0.7,0.6,1.5,1,2.5,1.2c1,0.2,2.2,0.3,3.5,0.3c0.7,0,1.3,0,1.9-0.1
		c0.5-0.1,1.2-0.2,1.9-0.3C289.2,193.2,289.5,192.9,289.5,192.4 M268.7,191.9v-4.3c0-0.3-0.1-0.5-0.3-0.6c-0.2-0.1-0.4-0.2-0.6-0.2
		h-0.1c-0.9,0.1-1.8,0.2-2.6,0.2c-0.8,0.1-1.9,0.1-3.3,0.1c-0.5,0-1.1-0.1-1.5-0.3c-0.5-0.2-0.9-0.5-1.3-0.9c-0.4-0.4-0.6-1-0.8-1.7
		c-0.2-0.7-0.3-1.6-0.3-2.7v-4c0-1.1,0.1-2,0.3-2.7c0.2-0.7,0.5-1.3,0.8-1.7c0.4-0.4,0.8-0.7,1.3-0.9c0.5-0.2,1-0.3,1.5-0.3
		c1.4,0,2.5,0,3.3,0.1c0.8,0.1,1.7,0.1,2.6,0.2h0.1c0.3,0,0.5-0.1,0.6-0.2c0.2-0.1,0.3-0.3,0.3-0.6v-4.3c0-0.4-0.1-0.6-0.2-0.7
		c-0.2-0.1-0.4-0.3-0.8-0.4c-0.7-0.2-1.5-0.3-2.6-0.5c-1.1-0.2-2.3-0.2-3.8-0.2c-3.4,0-6.1,1-8.2,3.1c-2,2.1-3.1,5.1-3.1,9.1v4
		c0,3.9,1,7,3.1,9.1c2,2.1,4.8,3.1,8.2,3.1c1.4,0,2.7-0.1,3.8-0.2c1.1-0.2,2-0.3,2.6-0.5c0.4-0.1,0.6-0.2,0.8-0.4
		C268.7,192.5,268.7,192.2,268.7,191.9 M237.4,186.8c-0.6,0.3-1.2,0.5-1.9,0.7c-0.7,0.2-1.4,0.3-2.1,0.3c-1,0-1.8-0.1-2.3-0.4
		s-0.7-0.9-0.7-2V185c0-0.6,0.1-1.1,0.2-1.5c0.1-0.4,0.4-0.8,0.7-1.1c0.3-0.3,0.8-0.5,1.3-0.7c0.5-0.1,1.2-0.2,2.1-0.2h2.7V186.8z
		 M245,175.1c0-1.8-0.3-3.3-0.8-4.5c-0.5-1.2-1.3-2.2-2.2-3c-1-0.8-2.1-1.4-3.5-1.7c-1.4-0.4-3-0.6-4.7-0.6c-1.6,0-3.2,0.1-4.7,0.3
		c-1.5,0.2-2.7,0.4-3.6,0.7c-0.6,0.2-0.9,0.5-0.9,1.1v3.9c0,0.3,0.1,0.5,0.2,0.7c0.2,0.1,0.4,0.2,0.6,0.2h0.2c0.4,0,0.9-0.1,1.4-0.1
		c0.6,0,1.2-0.1,1.9-0.1c0.7,0,1.5-0.1,2.3-0.1c0.8,0,1.6,0,2.3,0c1.1,0,2,0.2,2.6,0.6c0.6,0.4,1,1.3,1,2.7v1.7h-2.6
		c-4.1,0-7.2,0.6-9,1.9c-1.9,1.3-2.8,3.4-2.8,6.2v0.4c0,1.6,0.2,2.9,0.7,3.9c0.5,1.1,1.1,1.9,1.9,2.6c0.8,0.6,1.6,1.1,2.6,1.4
		c1,0.3,2,0.4,3.1,0.4c1.4,0,2.7-0.2,3.7-0.6c1-0.4,2-0.9,3-1.6v0.8c0,0.3,0.1,0.5,0.3,0.7c0.2,0.2,0.4,0.3,0.7,0.3h5.4
		c0.3,0,0.5-0.1,0.7-0.3c0.2-0.2,0.3-0.4,0.3-0.7V175.1z M219.3,192.4v-3.7c0-0.5-0.3-0.8-1-0.8H216c-0.7,0-1.2-0.1-1.3-0.4
		c-0.2-0.3-0.2-0.9-0.2-1.9v-14h3.9c0.3,0,0.5-0.1,0.7-0.3s0.3-0.4,0.3-0.7v-3.9c0-0.3-0.1-0.5-0.3-0.7s-0.4-0.3-0.7-0.3h-3.9v-5.1
		c0-0.3-0.1-0.5-0.2-0.6c-0.2-0.1-0.4-0.2-0.6-0.2h-0.1l-5.8,1c-0.3,0.1-0.5,0.2-0.7,0.3c-0.2,0.2-0.3,0.4-0.3,0.6v3.9h-3.9
		c-0.3,0-0.5,0.1-0.7,0.3c-0.2,0.2-0.3,0.4-0.3,0.7v3.2c0,0.3,0.1,0.5,0.3,0.6c0.2,0.2,0.4,0.3,0.7,0.4l3.9,0.6v14
		c0,1.7,0.2,3.1,0.5,4.2c0.4,1.1,0.9,1.9,1.5,2.5s1.5,1,2.5,1.2c1,0.2,2.2,0.3,3.5,0.3c0.7,0,1.3,0,1.9-0.1c0.5-0.1,1.2-0.2,1.9-0.3
		C219,193.2,219.3,192.9,219.3,192.4 M198.3,192.3v-16c0-1.5-0.1-2.9-0.4-4.3c-0.2-1.3-0.7-2.5-1.3-3.5c-0.6-1-1.5-1.8-2.6-2.3
		c-1.1-0.6-2.5-0.9-4.3-0.9c-1.5,0-2.9,0.2-4.1,0.6c-1.2,0.4-2.4,1-3.8,2v-1.2c0-0.3-0.1-0.5-0.3-0.7c-0.2-0.2-0.4-0.3-0.7-0.3h-5.4
		c-0.3,0-0.5,0.1-0.7,0.3c-0.2,0.2-0.3,0.4-0.3,0.7v25.6c0,0.3,0.1,0.5,0.3,0.7c0.2,0.2,0.4,0.3,0.7,0.3h5.8c0.3,0,0.5-0.1,0.7-0.3
		c0.2-0.2,0.3-0.4,0.3-0.7v-18.9c0.8-0.4,1.6-0.8,2.4-1.1c0.7-0.3,1.5-0.4,2.2-0.4c0.7,0,1.3,0.1,1.8,0.2c0.5,0.1,0.8,0.4,1.1,0.7
		c0.3,0.4,0.4,0.8,0.5,1.4c0.1,0.6,0.1,1.3,0.1,2.1v16c0,0.3,0.1,0.5,0.3,0.7c0.2,0.2,0.4,0.3,0.7,0.3h5.8c0.3,0,0.5-0.1,0.7-0.3
		C198.2,192.8,198.3,192.5,198.3,192.3 M161.9,181.2c0,3.9-1.4,5.9-4.3,5.9c-1.4,0-2.5-0.5-3.2-1.5c-0.7-1-1.1-2.5-1.1-4.4v-3.4
		c0-2,0.4-3.4,1.1-4.4c0.7-1,1.8-1.5,3.2-1.5c2.8,0,4.3,2,4.3,5.9V181.2z M169.7,177.8c0-1.9-0.3-3.7-0.8-5.2
		c-0.5-1.5-1.3-2.8-2.3-3.9c-1-1.1-2.3-1.9-3.8-2.5c-1.5-0.6-3.2-0.9-5.2-0.9c-2,0-3.7,0.3-5.2,0.9c-1.5,0.6-2.8,1.4-3.8,2.5
		c-1,1.1-1.8,2.4-2.3,3.9c-0.5,1.5-0.8,3.3-0.8,5.2v3.4c0,1.9,0.3,3.7,0.8,5.2c0.5,1.5,1.3,2.8,2.3,3.9c1,1.1,2.3,1.9,3.8,2.5
		c1.5,0.6,3.2,0.9,5.2,0.9c2,0,3.7-0.3,5.2-0.9c1.5-0.6,2.8-1.4,3.8-2.5s1.8-2.4,2.3-3.9c0.5-1.5,0.8-3.3,0.8-5.2V177.8z
		 M142.9,191.9v-4.3c0-0.3-0.1-0.5-0.3-0.6c-0.2-0.1-0.4-0.2-0.7-0.2h-0.1c-0.9,0.1-1.8,0.2-2.6,0.2s-1.9,0.1-3.3,0.1
		c-0.5,0-1.1-0.1-1.5-0.3c-0.5-0.2-0.9-0.5-1.3-0.9c-0.4-0.4-0.6-1-0.8-1.7c-0.2-0.7-0.3-1.6-0.3-2.7v-4c0-1.1,0.1-2,0.3-2.7
		c0.2-0.7,0.5-1.3,0.8-1.7c0.4-0.4,0.8-0.7,1.3-0.9c0.5-0.2,1-0.3,1.5-0.3c1.4,0,2.5,0,3.3,0.1c0.8,0.1,1.7,0.1,2.6,0.2h0.1
		c0.3,0,0.5-0.1,0.7-0.2c0.2-0.1,0.3-0.3,0.3-0.6v-4.3c0-0.4-0.1-0.6-0.2-0.7c-0.2-0.1-0.4-0.3-0.8-0.4c-0.7-0.2-1.5-0.3-2.6-0.5
		c-1.1-0.2-2.3-0.2-3.8-0.2c-3.4,0-6.1,1-8.2,3.1c-2,2.1-3.1,5.1-3.1,9.1v4c0,3.9,1,7,3.1,9.1c2,2.1,4.8,3.1,8.2,3.1
		c1.4,0,2.7-0.1,3.8-0.2c1.1-0.2,1.9-0.3,2.6-0.5c0.4-0.1,0.6-0.2,0.8-0.4C142.9,192.5,142.9,192.2,142.9,191.9 M119.3,192.3v-16
		c0-1.5-0.1-2.9-0.4-4.3c-0.2-1.3-0.7-2.5-1.3-3.5c-0.6-1-1.5-1.8-2.6-2.3c-1.1-0.6-2.5-0.9-4.3-0.9c-1.5,0-2.9,0.2-4.1,0.6
		c-1.2,0.4-2.4,1-3.8,2v-1.2c0-0.3-0.1-0.5-0.3-0.7c-0.2-0.2-0.4-0.3-0.7-0.3h-5.4c-0.3,0-0.5,0.1-0.7,0.3c-0.2,0.2-0.3,0.4-0.3,0.7
		v25.6c0,0.3,0.1,0.5,0.3,0.7c0.2,0.2,0.4,0.3,0.7,0.3h5.8c0.3,0,0.5-0.1,0.7-0.3c0.2-0.2,0.3-0.4,0.3-0.7v-18.9
		c0.8-0.4,1.6-0.8,2.4-1.1c0.7-0.3,1.5-0.4,2.2-0.4c0.7,0,1.3,0.1,1.8,0.2c0.5,0.1,0.8,0.4,1.1,0.7c0.3,0.4,0.4,0.8,0.5,1.4
		c0.1,0.6,0.1,1.3,0.1,2.1v16c0,0.3,0.1,0.5,0.3,0.7c0.2,0.2,0.4,0.3,0.7,0.3h5.8c0.3,0,0.5-0.1,0.7-0.3
		C119.1,192.8,119.3,192.5,119.3,192.3 M82.1,186.8c-0.6,0.3-1.2,0.5-1.9,0.7c-0.7,0.2-1.4,0.3-2.1,0.3c-1,0-1.8-0.1-2.3-0.4
		s-0.7-0.9-0.7-2V185c0-0.6,0.1-1.1,0.2-1.5c0.1-0.4,0.4-0.8,0.7-1.1c0.3-0.3,0.8-0.5,1.3-0.7c0.5-0.1,1.2-0.2,2.1-0.2h2.7V186.8z
		 M89.8,175.1c0-1.8-0.3-3.3-0.8-4.5c-0.5-1.2-1.3-2.2-2.2-3c-1-0.8-2.1-1.4-3.5-1.7c-1.4-0.4-3-0.6-4.7-0.6c-1.6,0-3.2,0.1-4.7,0.3
		c-1.5,0.2-2.7,0.4-3.6,0.7c-0.6,0.2-0.9,0.5-0.9,1.1v3.9c0,0.3,0.1,0.5,0.2,0.7c0.2,0.1,0.4,0.2,0.6,0.2h0.2c0.4,0,0.9-0.1,1.4-0.1
		c0.6,0,1.2-0.1,2-0.1c0.7,0,1.5-0.1,2.3-0.1c0.8,0,1.6,0,2.3,0c1.1,0,2,0.2,2.6,0.6c0.6,0.4,1,1.3,1,2.7v1.7h-2.6
		c-4.1,0-7.2,0.6-9,1.9s-2.8,3.4-2.8,6.2v0.4c0,1.6,0.2,2.9,0.7,3.9c0.5,1.1,1.1,1.9,1.9,2.6c0.8,0.6,1.6,1.1,2.6,1.4
		c1,0.3,2,0.4,3.1,0.4c1.4,0,2.7-0.2,3.7-0.6s2-0.9,3-1.6v0.8c0,0.3,0.1,0.5,0.3,0.7c0.2,0.2,0.4,0.3,0.7,0.3h5.4
		c0.3,0,0.5-0.1,0.7-0.3c0.2-0.2,0.3-0.4,0.3-0.7V175.1z M55.4,182.7c0,1.3-0.5,2.4-1.4,3.1c-0.9,0.7-2.7,1.1-5.1,1.1h-0.8
		c-0.4,0-0.8,0-1.2,0c-0.4,0-0.8,0-1.2,0h-0.8v-9h5.4c1.9,0,3.3,0.4,4,1.3c0.7,0.9,1.1,1.9,1.1,3V182.7z M55.2,168.4
		c0,0.5-0.1,1-0.2,1.5c-0.2,0.5-0.4,0.9-0.8,1.2c-0.4,0.3-0.9,0.6-1.5,0.8c-0.6,0.2-1.4,0.3-2.4,0.3h-5.4v-8.3c0.2,0,0.4,0,0.7,0
		c0.3,0,0.7,0,1.1,0h1.1h0.8c2.5,0,4.2,0.3,5.2,0.9c1,0.6,1.5,1.6,1.5,2.9V168.4z M63.4,182.2c0-1.7-0.4-3.1-1.2-4.3
		c-0.8-1.2-1.8-2.2-3.1-2.8c1.3-0.6,2.3-1.6,3-2.8c0.7-1.3,1.1-2.7,1.1-4.2v-0.9c0-1.9-0.4-3.5-1.1-4.8c-0.7-1.3-1.8-2.3-3.1-3.1
		c-1.3-0.8-2.9-1.3-4.8-1.7c-1.9-0.3-3.9-0.5-6.2-0.5c-0.8,0-1.6,0-2.4,0c-0.8,0-1.6,0.1-2.4,0.1c-0.8,0-1.5,0.1-2.2,0.2
		c-0.7,0.1-1.2,0.1-1.6,0.2c-0.9,0.2-1.6,0.4-2,0.9c-0.4,0.4-0.6,1.2-0.6,2.3V190c0,1.1,0.2,1.8,0.6,2.3c0.4,0.4,1.1,0.7,2,0.9
		c0.5,0.1,1.1,0.2,1.7,0.2c0.7,0.1,1.4,0.1,2.2,0.2c0.8,0,1.6,0.1,2.4,0.1c0.8,0,1.7,0,2.5,0c2.1,0,4.1-0.2,5.9-0.5
		c1.8-0.3,3.5-0.9,4.8-1.7c1.4-0.8,2.4-1.9,3.3-3.3c0.8-1.4,1.2-3.2,1.2-5.3V182.2z"/>
        <rect class="st3" width="326" height="230.5"/>
</g>
</svg>
