<svg fill="none" viewBox="0 0 42 26" xmlns="http://www.w3.org/2000/svg" xmlns:xlink="http://www.w3.org/1999/xlink"><linearGradient id="a" gradientUnits="userSpaceOnUse" x1="416.071" x2="1766.43" y1="427.26" y2="-74.3006"><stop offset="0" stop-color="#005ab9"/><stop offset="1" stop-color="#1e3764"/></linearGradient><linearGradient id="b" gradientUnits="userSpaceOnUse" x1="145.412" x2="1601.92" y1="491.069" y2="-5.85735"><stop offset="0" stop-color="#fba900"/><stop offset="1" stop-color="#ffd800"/></linearGradient><path d="m.452209 25.4324v-5.9362h1.831741c1.3314 0 2.18791.5003 2.18791 1.5349 0 .5852-.27137.9922-.65298 1.2297.5512.2544.87345.7462.87345 1.4162 0 1.1957-.87345 1.7554-2.23029 1.7554zm1.178751-3.4685h.87348c.53424 0 .76323-.2628.76323-.7462 0-.5173-.41555-.6869-.97525-.6869h-.66146zm0 2.4339h.7293c.71235 0 1.12788-.1781 1.12788-.7378 0-.5512-.35616-.7802-1.0261-.7802h-.83108zm5.34729 1.1363c-1.1618 0-1.74695-.5681-1.74695-1.3313 0-.8396.68691-1.3315 1.70455-1.3399.25287.0046.50509.0273.75473.0678v-.2035c0-.5173-.29681-.7633-.86498-.7633-.38276-.0047-.76284.0644-1.11941.2036l-.21199-.9159c.36464-.1526.94978-.2544 1.46708-.2544 1.2466 0 1.86565.6615 1.86565 1.8063v2.3575c-.34768.1781-1.00066.3731-1.84868.3731zm.71233-.9582v-.9074c-.19771-.044-.39955-.0667-.60208-.0679-.39011 0-.69539.1527-.69539.5513 0 .3562.2544.5427.70386.5427.20437.0067.40753-.0339.59361-.1187zm1.96028.8565v-4.0621c.60944-.2447 1.25984-.3714 1.91654-.3731 1.2381 0 1.9505.6106 1.9505 1.7385v2.6967h-1.1703v-2.6119c0-.5852-.2714-.8565-.7887-.8565-.2569-.0036-.5115.0484-.7463.1526v3.3158zm7.95674-4.1808-.2205.9244c-.303-.1313-.6283-.2033-.9583-.2121-.6869 0-1.06.4834-1.06 1.2806 0 .8735.3901 1.3229 1.1194 1.3229.3254-.0089.6457-.0839.9413-.2205l.1865.9413c-.384.1709-.8009.2549-1.2211.2459-1.4077 0-2.2219-.8734-2.2219-2.2557 0-1.3738.8057-2.2812 2.1541-2.2812.4396-.0021.8751.0844 1.2805.2544zm2.5281 4.2825c-1.3059 0-2.12-.9073-2.12-2.2727 0-1.3568.8141-2.2642 2.12-2.2642 1.3145 0 2.1116.9074 2.1116 2.2642 0 1.3654-.7971 2.2727-2.1116 2.2727zm0-.9667c.6021 0 .9159-.5003.9159-1.306 0-.7971-.3138-1.2975-.9159-1.2975-.5936 0-.9243.5004-.9243 1.2975 0 .8057.3307 1.306.9243 1.306zm2.7888.865v-4.0621c.6094-.2447 1.2599-.3714 1.9166-.3731 1.2381 0 1.9504.6106 1.9504 1.7385v2.6967h-1.1702v-2.6119c0-.5852-.2714-.8565-.7887-.8565-.2569-.0036-.5115.0484-.7463.1526v3.3158zm6.5063.1017c-1.0092 0-1.5265-.5512-1.5265-1.6706v-1.8317h-.5766v-.9328h.5766v-.9414l1.1703-.0593v1.0007h.9413v.9328h-.9413v1.8148c0 .4918.2035.7208.5851.7208.1513-.0004.302-.0174.4495-.0509l.0594.9414c-.2422.0536-.4898.0792-.7378.0762zm2.9538 0c-1.1618 0-1.7469-.5681-1.7469-1.3313 0-.8396.6869-1.3315 1.7045-1.3399.2529.0046.5051.0273.7548.0678v-.2035c0-.5173-.2968-.7633-.865-.7633-.3828-.0047-.7628.0644-1.1194.2036l-.212-.9159c.3646-.1526.9498-.2544 1.4671-.2544 1.2466 0 1.8656.6615 1.8656 1.8063v2.3575c-.3477.1781-1.0006.3731-1.8487.3731zm.7124-.9582v-.9074c-.1977-.044-.3996-.0667-.6021-.0679-.3901 0-.6954.1527-.6954.5513 0 .3562.2544.5427.7039.5427.2043.0067.4075-.0339.5936-.1187zm5.1403-3.3243-.2205.9244c-.303-.1313-.6283-.2033-.9583-.2121-.6869 0-1.06.4834-1.06 1.2806 0 .8735.3901 1.3229 1.1194 1.3229.3254-.0089.6457-.0839.9413-.2205l.1866.9413c-.384.1709-.801.2549-1.2212.2459-1.4077 0-2.2219-.8734-2.2219-2.2557 0-1.3738.8057-2.2812 2.154-2.2812.4396-.0021.8752.0844 1.2806.2544zm2.5729 4.2825c-1.0091 0-1.5264-.5512-1.5264-1.6706v-1.8317h-.5767v-.9328h.5767v-.9414l1.1703-.0593v1.0007h.9413v.9328h-.9413v1.8148c0 .4918.2035.7208.5851.7208.1512-.0004.302-.0174.4495-.0509l.0593.9414c-.2422.0536-.4897.0792-.7378.0762z" fill="#1e3764"/><path d="m8.61513 16.5281c6.19247 0 9.28877-4.1283 12.38497-8.25665h-20.547891v8.25665z" fill="url(#a)"/><path d="m33.3851.0147705c-6.1925 0-9.2887 4.1283395-12.385 8.2566795h20.5479v-8.2566795z" fill="url(#b)"/></svg>