<svg width="40" height="40" xmlns="http://www.w3.org/2000/svg">
    <g fill="none" fill-rule="evenodd">
        <path d="M23.331 6.0092c-7.477 0-13.331 5.872-13.331 13.376 0 7.499 5.854 13.379 13.331 13.379 7.459 0 13.311-5.88 13.311-13.379 0-7.504-5.852-13.376-13.311-13.376" fill="#81BC00"/>
        <path d="M17.9106 20.4956c0 1.132.64 1.787 1.563 1.787.892 0 1.384-.655 1.384-1.37 0-.863-.402-1.443-1.532-1.443h-.939v-1.861h.939c1.07 0 1.382-.521 1.382-1.28 0-.789-.49-1.161-1.189-1.161-1.028 0-1.325.61-1.325 1.518h-2.41c0-1.771 1.101-3.333 3.674-3.333 1.921 0 3.632.967 3.632 2.917 0 1.175-.699 2.023-1.533 2.307.938.341 1.697 1.19 1.697 2.515 0 1.979-1.771 3.125-3.751 3.125-2.575 0-4.003-1.518-4.003-3.721h2.411zM31.6034 23.9931h-2.634l-1.177-2.084-1.174 2.084h-2.635l2.47-3.617-2.425-3.556h2.634l1.13 2.024 1.132-2.024h2.634l-2.41 3.556z" fill="#FFF"/>
    </g>
</svg>
