<svg xmlns="http://www.w3.org/2000/svg" viewBox="0 0 165.94 34" width="190" height="40">
    <defs>
        <style>.cls-1{fill:#81bc00;}.cls-2{fill:#fff;}</style>
    </defs>
    <title>3x4x</title>
    <path class="cls-1"
          d="M141.19,12.9a12.76,12.76,0,1,0-25.52.32,13.39,13.39,0,0,0,3.7,9.23,12.37,12.37,0,0,0,9,3.93,13.25,13.25,0,0,0,11.89-7.14.62.62,0,0,0,.07-.17h-5.2l0,0a8.9,8.9,0,0,1-6.55,2.8,8.33,8.33,0,0,1-8.06-6.84h20.58C141.13,14.57,141.19,13.58,141.19,12.9Zm-20.52-2a7.93,7.93,0,0,1,15.52,0ZM101.24,4.43c-4.63,0-7,2.48-7,7.4V26.4H89.49V11.49a11.51,11.51,0,0,1,1.57-6.2,12.54,12.54,0,0,1,20.36,0,11.51,11.51,0,0,1,1.56,6.2V26.4h-4.76V11.83C108.22,6.91,105.88,4.43,101.24,4.43ZM165.94.07l-10,24.49-2.48,6.06L152.06,34h-4.95L151,24.56,140.69.07h5.23l7.51,18.41L161,.07ZM73.63,21.92a8.54,8.54,0,0,1-8.49-8.67,8.49,8.49,0,1,1,17,0A8.55,8.55,0,0,1,73.63,21.92Zm0-21.85A13,13,0,0,0,60.5,13.25a13.13,13.13,0,1,0,26.25,0A13,13,0,0,0,73.63.07ZM13.33,0A13.21,13.21,0,0,0,0,13.39,13.21,13.21,0,0,0,13.33,26.76,13.2,13.2,0,0,0,26.64,13.39,13.2,13.2,0,0,0,13.33,0"/>
    <path class="cls-2"
          d="M7.91,14.5a1.56,1.56,0,0,0,1.56,1.78,1.32,1.32,0,0,0,1.39-1.37c0-.86-.4-1.44-1.53-1.44H8.39V11.61h.94c1.07,0,1.38-.52,1.38-1.28A1.07,1.07,0,0,0,9.52,9.17c-1,0-1.33.61-1.33,1.52H5.78c0-1.78,1.1-3.34,3.68-3.34,1.92,0,3.63,1,3.63,2.92a2.38,2.38,0,0,1-1.53,2.31,2.55,2.55,0,0,1,1.69,2.51c0,2-1.77,3.13-3.75,3.13-2.57,0-4-1.52-4-3.72ZM21.6,18H19l-1.18-2.08L16.62,18H14l2.47-3.61L14,10.82h2.63l1.13,2,1.13-2h2.64l-2.41,3.56Z"/>
    <path class="cls-1" d="M43.37,0A13.21,13.21,0,0,0,30,13.38a13.32,13.32,0,1,0,26.64,0A13.2,13.2,0,0,0,43.37,0"/>
    <path class="cls-2"
          d="M51.65,18H49L47.84,15.9,46.66,18H44l2.47-3.61-2.43-3.56h2.64l1.13,2,1.13-2H51.6l-2.41,3.56ZM39.47,15.24H35.09V7.32h2.53V13.1h1.85v-3H42v3h1.33v2.14H42v3H39.47Z"/>
</svg>
