<svg width="190" height="40" xmlns="http://www.w3.org/2000/svg">
  <g fill="none" fill-rule="evenodd">
    <path d="M151.19 18.9048c-.043-7.059-5.742-12.801-12.717-12.801-7.174 0-12.802 5.761-12.802 13.117 0 3.453 1.324 6.732 3.703 9.234 2.42 2.533 5.614 3.93 9.012 3.93 3.878 0 9.313-1.864 11.898-7.147.056-.112.066-.168.066-.168h-5.2l-.031.035c-1.396 1.672-4.034 2.8-6.545 2.8-3.189 0-7.014-2.102-8.06-6.849h20.574c.045-.49.102-1.474.102-2.151zm-20.525-2.042c.634-3.179 3.677-6.286 7.769-6.286 4.086 0 7.129 3.107 7.754 6.286h-15.523zm-19.421-6.436c-4.6382 0-6.9932 2.486-6.9932 7.404v14.565h-4.762v-14.907c.045-2.613.508-4.461 1.574-6.196 1.264-1.948 4.258-5.226 10.1812-5.226 5.906 0 8.911 3.278 10.171 5.226 1.056 1.735 1.535 3.583 1.564 6.196v14.907h-4.758v-14.565c0-4.918-2.343-7.404-6.977-7.404zm64.697-4.354l-10.036 24.485-2.48 6.059-1.37 3.351h-4.948l3.84-9.403-10.257-24.492h5.229l7.509 18.411 7.526-18.411h4.987zm-92.3092 21.847c-4.682 0-8.492-3.808-8.492-8.667 0-4.86 3.81-8.676 8.492-8.676 4.652 0 8.483 3.816 8.483 8.676 0 4.859-3.831 8.667-8.483 8.667zm0-21.847c-7.365 0-13.134 5.784-13.134 13.179 0 7.388 5.769 13.18 13.134 13.18 7.348 0 13.114-5.792 13.114-13.18 0-7.395-5.766-13.179-13.114-13.179zM23.331 6.0092c-7.477 0-13.331 5.872-13.331 13.376 0 7.499 5.854 13.379 13.331 13.379 7.459 0 13.311-5.88 13.311-13.379 0-7.504-5.852-13.376-13.311-13.376" fill="#81BC00"/>
    <path d="M17.9106 20.4956c0 1.132.64 1.787 1.563 1.787.892 0 1.384-.655 1.384-1.37 0-.863-.402-1.443-1.532-1.443h-.939v-1.861h.939c1.07 0 1.382-.521 1.382-1.28 0-.789-.49-1.161-1.189-1.161-1.028 0-1.325.61-1.325 1.518h-2.41c0-1.771 1.101-3.333 3.674-3.333 1.921 0 3.632.967 3.632 2.917 0 1.175-.699 2.023-1.533 2.307.938.341 1.697 1.19 1.697 2.515 0 1.979-1.771 3.125-3.751 3.125-2.575 0-4.003-1.518-4.003-3.721h2.411zM31.6034 23.9931h-2.634l-1.177-2.084-1.174 2.084h-2.635l2.47-3.617-2.425-3.556h2.634l1.13 2.024 1.132-2.024h2.634l-2.41 3.556z" fill="#FFF"/>
    <g>
      <path d="M53.3735 6c-7.477 0-13.332 5.872-13.332 13.376 0 7.499 5.855 13.379 13.332 13.379 7.458 0 13.311-5.88 13.311-13.379 0-7.504-5.853-13.376-13.311-13.376" fill="#81BC00"/>
      <path fill="#FFF" d="M61.6454 23.9839h-2.634l-1.176-2.084-1.175 2.084h-2.635l2.47-3.617-2.425-3.556h2.635l1.13 2.024 1.131-2.024h2.635l-2.411 3.556zM49.4677 21.2397h-4.375v-7.922h2.531v5.781h1.844v-3.015h2.516v3.015h1.328v2.141h-1.328v3.016h-2.516z"/>
    </g>
  </g>
</svg>
