<?xml version="1.0" encoding="UTF-8"?>
<svg width="190px" height="40px" viewBox="0 0 190 40" version="1.1" xmlns="http://www.w3.org/2000/svg" xmlns:xlink="http://www.w3.org/1999/xlink">
    <!-- Generator: Sketch 59.1 (86144) - https://sketch.com -->
    <title>ic_3x4x_oney_green</title>
    <desc>Created with Sketch.</desc>
    <g id="Checkout" stroke="none" stroke-width="1" fill="none" fill-rule="evenodd">
        <g id="Group-6">
            <path d="M151.19,18.9048 C151.147,11.8458 145.448,6.1038 138.473,6.1038 C131.299,6.1038 125.671,11.8648 125.671,19.2208 C125.671,22.6738 126.995,25.9528 129.374,28.4548 C131.794,30.9878 134.988,32.3848 138.386,32.3848 C142.264,32.3848 147.699,30.5208 150.284,25.2378 C150.34,25.1258 150.35,25.0698 150.35,25.0698 L145.15,25.0698 L145.119,25.1048 C143.723,26.7768 141.085,27.9048 138.574,27.9048 C135.385,27.9048 131.56,25.8028 130.514,21.0558 L151.088,21.0558 C151.133,20.5658 151.19,19.5818 151.19,18.9048 L151.19,18.9048 Z M130.665,16.8628 C131.299,13.6838 134.342,10.5768 138.434,10.5768 C142.52,10.5768 145.563,13.6838 146.188,16.8628 L130.665,16.8628 Z M111.244,10.4268 C106.6058,10.4268 104.2508,12.9128 104.2508,17.8308 L104.2508,32.3958 L99.4888,32.3958 L99.4888,17.4888 C99.5338,14.8758 99.9968,13.0278 101.0628,11.2928 C102.3268,9.3448 105.3208,6.0668 111.244,6.0668 C117.15,6.0668 120.155,9.3448 121.415,11.2928 C122.471,13.0278 122.95,14.8758 122.979,17.4888 L122.979,32.3958 L118.221,32.3958 L118.221,17.8308 C118.221,12.9128 115.878,10.4268 111.244,10.4268 L111.244,10.4268 Z M175.941,6.0728 L165.905,30.5578 L163.425,36.6168 L162.055,39.9678 L157.107,39.9678 L160.947,30.5648 L150.69,6.0728 L155.919,6.0728 L163.428,24.4838 L170.954,6.0728 L175.941,6.0728 Z M83.6318,27.9198 C78.9498,27.9198 75.1398,24.1118 75.1398,19.2528 C75.1398,14.3928 78.9498,10.5768 83.6318,10.5768 C88.2838,10.5768 92.1148,14.3928 92.1148,19.2528 C92.1148,24.1118 88.2838,27.9198 83.6318,27.9198 L83.6318,27.9198 Z M83.6318,6.0728 C76.2668,6.0728 70.4978,11.8568 70.4978,19.2518 C70.4978,26.6398 76.2668,32.4318 83.6318,32.4318 C90.9798,32.4318 96.7458,26.6398 96.7458,19.2518 C96.7458,11.8568 90.9798,6.0728 83.6318,6.0728 L83.6318,6.0728 Z" id="Fill-1" fill="#81BC00"></path>
            <g id="ic_oney3x" transform="translate(10.000000, 6.009200)">
                <path d="M13.331,0 C5.854,0 0,5.872 0,13.376 C0,20.875 5.854,26.755 13.331,26.755 C20.79,26.755 26.642,20.875 26.642,13.376 C26.642,5.872 20.79,0 13.331,0" id="Fill-2" fill="#81BC00"></path>
                <path d="M7.9106,14.4864 C7.9106,15.6184 8.5506,16.2734 9.4736,16.2734 C10.3656,16.2734 10.8576,15.6184 10.8576,14.9034 C10.8576,14.0404 10.4556,13.4604 9.3256,13.4604 L8.3866,13.4604 L8.3866,11.5994 L9.3256,11.5994 C10.3956,11.5994 10.7076,11.0784 10.7076,10.3194 C10.7076,9.5304 10.2176,9.1584 9.5186,9.1584 C8.4906,9.1584 8.1936,9.7684 8.1936,10.6764 L5.7836,10.6764 C5.7836,8.9054 6.8846,7.3434 9.4576,7.3434 C11.3786,7.3434 13.0896,8.3104 13.0896,10.2604 C13.0896,11.4354 12.3906,12.2834 11.5566,12.5674 C12.4946,12.9084 13.2536,13.7574 13.2536,15.0824 C13.2536,17.0614 11.4826,18.2074 9.5026,18.2074 C6.9276,18.2074 5.4996,16.6894 5.4996,14.4864 L7.9106,14.4864 Z" id="Fill-3" fill="#FFFFFF"></path>
                <polygon id="Fill-4" fill="#FFFFFF" points="21.6034 17.9839 18.9694 17.9839 17.7924 15.8999 16.6184 17.9839 13.9834 17.9839 16.4534 14.3669 14.0284 10.8109 16.6624 10.8109 17.7924 12.8349 18.9244 10.8109 21.5584 10.8109 19.1484 14.3669"></polygon>
            </g>
            <g id="ic_oney4x" transform="translate(40.041500, 6.000000)">
                <path d="M13.332,-1.77635684e-15 C5.855,-1.77635684e-15 1.42108547e-14,5.872 1.42108547e-14,13.376 C1.42108547e-14,20.875 5.855,26.755 13.332,26.755 C20.79,26.755 26.643,20.875 26.643,13.376 C26.643,5.872 20.79,-1.77635684e-15 13.332,-1.77635684e-15" id="Fill-5" fill="#81BC00"></path>
                <polygon id="Fill-6" fill="#FFFFFF" points="21.6039 17.9839 18.9699 17.9839 17.7939 15.8999 16.6189 17.9839 13.9839 17.9839 16.4539 14.3669 14.0289 10.8109 16.6639 10.8109 17.7939 12.8349 18.9249 10.8109 21.5599 10.8109 19.1489 14.3669"></polygon>
                <polygon id="Fill-7" fill="#FFFFFF" points="9.4262 15.2397 5.0512 15.2397 5.0512 7.3177 7.5822 7.3177 7.5822 13.0987 9.4262 13.0987 9.4262 10.0837 11.9422 10.0837 11.9422 13.0987 13.2702 13.0987 13.2702 15.2397 11.9422 15.2397 11.9422 18.2557 9.4262 18.2557"></polygon>
            </g>
        </g>
    </g>
</svg>