<svg width="300" height="63" viewBox="0 0 470 63" xmlns="http://www.w3.org/2000/svg">
    <g fill="none">
        <g transform="translate(56)">
            <path d="m79.6843617.11538462c-13.6027806 0-24.2401167 10.73076918-24.2401167 24.44230768s10.656468 24.4615385 24.2401167 24.4615385c13.5645168 0 24.2018783-10.75 24.2018783-24.4615385.019107-13.7115385-10.6373615-24.44230768-24.2018783-24.44230768m0 40.53846158c-8.6476186 0-15.6690257-7.0576924-15.6690257-16.0769231 0-9.0192308 7.040539-16.09615387 15.6690257-16.09615387 8.5902229 0 15.6499326 7.07692307 15.6499326 16.09615387.0190932 9-7.0597097 16.0769231-15.6499326 16.0769231m170.3886973-40.53846158-18.519678 45.42307688-4.572524 11.25-2.525411 6.2115385h-9.125916l7.078803-17.4423077-18.940581-45.44230768h9.642477l13.851496 34.15384618 13.889759-34.15384618zm-119.421317 8.07692307c-8.551959 0-12.914032 4.61538461-12.914032 13.73076921v27.0192308h-8.781542v-27.6538462c.076528-4.8461538.937463-8.2692307 2.908049-11.49999996 2.334092-3.61538462 7.863211-9.69230769 18.787525-9.69230769 10.905183 0 16.453434 6.07692307 18.768394 9.69230769 1.951453 3.21153846 2.831521 6.65384616 2.888917 11.49999996v27.6538462h-8.781542v-27.0192308c0-9.1153846-4.32381-13.73076921-12.875769-13.73076921m35.85318 11.94230771c1.167046-5.9038462 6.791824-11.67307694 14.348925-11.67307694 7.537968 0 13.162747 5.76923074 14.310661 11.67307694zm37.881161 3.7884615c-.076527-13.0961538-10.599072-23.74999998-23.474841-23.74999998-13.239274 0-23.627896 10.69230768-23.627896 24.34615388 0 6.4038461 2.448884 12.4807692 6.830089 17.1346154 4.476864 4.6923076 10.369489 7.2884615 16.62562 7.2884615 7.155331 0 17.199578-3.4615385 21.963421-13.25.09566-.2115385.114791-.3076923.114791-.3076923h-9.604213l-.057396.0576923c-2.582806 3.0961538-7.442309 5.1923077-12.072229 5.1923077-5.892625 0-12.952296-3.9038462-14.884617-12.7115385h37.97682c.114792-.9230769.210451-2.75.210451-4"
                  fill="#a5a5a5"/>
            <path d="m24.6036229 0c-13.7940996 0-24.6036229 10.8846154-24.6036229 24.8269231 0 13.9038461 10.8095233 24.8269231 24.6036229 24.8269231 13.7749676 0 24.565359-10.9038462 24.565359-24.8269231 0-13.9423077-10.8095232-24.8269231-24.565359-24.8269231"
                  fill="#a5a5a5"/>
            <g fill="#fff">
                <path d="m39.8708787 33.3653846h-4.8595025l-2.1810365-3.8653846-2.1619047 3.8653846h-4.8595025l4.5533921-6.7115384-4.4768645-6.5961539h4.8595025l2.0853771 3.75 2.1045089-3.75h4.8595025l-4.4577326 6.5961539z"/>
                <path d="m7.9682525 14.3892336h-7.9682525v-14.3892336h4.61319882v10.5012336h3.35505368v-5.48680369h4.5949648v5.48680369h2.4251204v3.888h-2.4251204v5.4868038h-4.5949648z"
                      transform="translate(9.208164 15.09914)"/>
            </g>
        </g>
        <g fill="#a5a5a5" transform="translate(315 20.007324)">
            <path d="m9.15234375 24.5888672c2.70703125 0 4.70776365-.5505371 6.00219725-1.6516113 1.2944336-1.1010743 1.9416504-2.5217286 1.9416504-4.2619629 0-1.3212891-.4511719-2.4223633-1.3535156-3.3032227-.913086-.8701172-2.2827149-1.5200195-4.1088867-1.949707-2.73925785-.6015625-4.33447269-1.0258789-4.78564457-1.2729492-.45117187-.2363282-.67675781-.6176758-.67675781-1.144043 0-.4189453.2121582-.7841797.63647461-1.09570313.4243164-.31152344 1.13598633-.46728516 2.13500976-.46728516 1.21386721 0 2.07324221.31152344 2.57812501.93457029.2685547.34375.4350586.8110352.4995117 1.4018555h4.5922852c-.2041016-2.14843751-.9963379-3.6604004-2.376709-4.53588868s-3.1662598-1.31323242-5.35766603-1.31323242c-2.30957031 0-4.10083008.58276367-5.3737793 1.74829102-1.27294922 1.16552734-1.90942383 2.55932618-1.90942383 4.18139648 0 1.375.40820313 2.4277344 1.22460938 3.1582031.81640625.741211 2.21826172 1.3588867 4.2055664 1.8530274 2.76074219.6552734 4.35595708 1.1171875 4.78564458 1.3857422.4296875.2685546.6445312.6606445.6445312 1.1762695 0 .5371094-.2658691.9399414-.7976074 1.2084961s-1.2487793.402832-2.15112306.402832c-1.53613282 0-2.58886719-.3061523-3.15820313-.918457-.32226562-.34375-.53173828-.9238281-.62841797-1.7402344h-4.65673828c0 1.8046875.65795899 3.2897949 1.97387696 4.4553223 1.31591796 1.1655273 3.35424804 1.748291 6.11499023 1.748291zm15.64599605-.0483399c1.2460938 0 2.3632813-.2846679 3.3515625-.8540039.8271485-.4833984 1.5576172-1.0688476 2.1914063-1.7563476.0322266.3974609.0751953.7519531.1289062 1.0634765.053711.3115235.1503907.6445313.2900391.9990235h4.9951172v-.6767578c-.3007813-.1396485-.5263672-.3168946-.6767578-.5317383-.1503906-.2148438-.2416992-.6230469-.2739258-1.2246094-.0214844-.7949219-.0322266-1.4716797-.0322266-2.0302734v-8.0566407c0-2.11621089-.746582-3.55566401-2.2397461-4.31835932-1.493164-.76269532-3.2011718-1.14404297-5.1240234-1.14404297-2.9541016 0-5.0380859.7734375-6.2519531 2.3203125-.7626953.98828125-1.1923828 2.25048829-1.2890625 3.78662109h4.4311523c.1074219-.6767578.3222657-1.2138672.6445313-1.6113281.4511718-.5371094 1.2192383-.80566409 2.3041992-.80566409.9667969 0 1.6999512.13696289 2.1994629.41088869s.7492676.7707519.7492676 1.4904785c0 .5908203-.3276368 1.0258789-.9829102 1.3051758-.3652344.1611328-.972168.2954101-1.8208008.402832l-1.5629883.1933594c-1.7724609.2255859-3.1152343.6015625-4.0283203 1.1279297-1.665039.9667968-2.4975586 2.5297851-2.4975586 4.6889648 0 1.6650391.5183106 2.951416 1.5549317 3.8591309 1.0366211.9077148 2.3498535 1.3615722 3.9396972 1.3615722zm1.3535157-3.3354492c-.6230469 0-1.1520996-.1745605-1.5871582-.5236816s-.6525879-.9157715-.6525879-1.6999512c0-.8808594.3544922-1.5307617 1.0634765-1.949707.4189453-.2470703 1.1118164-.456543 2.0786133-.628418l1.03125-.1933594c.515625-.0966797.9211426-.201416 1.2165528-.3142089.2954101-.112793.5881347-.2604981.8781738-.4431153v1.7080078c-.0322266 1.5361328-.4645996 2.5942383-1.2971192 3.1743164-.8325195.5800782-1.7429199.8701172-2.7312011.8701172zm17.305664 2.7875977v-9.506836c0-1.0849609.1503907-1.9765625.4511719-2.6748046.5800781-1.3212891 1.6489258-1.98193364 3.206543-1.98193364 1.2675781 0 2.1269531.45117184 2.578125 1.35351564.2470703.4941406.3706054 1.203125.3706054 2.1269531v10.6831055h4.7050782v-11.8271485c0-2.20214839-.5773926-3.77856441-1.7321778-4.729248-1.1547851-.9506836-2.6398925-1.42602539-4.4553222-1.42602539-1.4501953 0-2.6479492.35449218-3.5932618 1.06347656-.5263671.39746094-1.0849609 1.04736328-1.6757812 1.94970703v-2.56201172h-4.4311523v17.53125002zm22.5585938.5961914c2.7070312 0 4.7077637-.5505371 6.0021972-1.6516113 1.2944336-1.1010743 1.9416504-2.5217286 1.9416504-4.2619629 0-1.3212891-.4511718-2.4223633-1.3535156-3.3032227-.9130859-.8701172-2.2827148-1.5200195-4.1088867-1.949707-2.7392578-.6015625-4.3344727-1.0258789-4.7856445-1.2729492-.4511719-.2363282-.6767579-.6176758-.6767579-1.144043 0-.4189453.2121583-.7841797.6364747-1.09570313.4243164-.31152344 1.1359863-.46728516 2.1350097-.46728516 1.2138672 0 2.0732422.31152344 2.578125.93457029.2685547.34375.4350586.8110352.4995117 1.4018555h4.5922852c-.2041016-2.14843751-.9963379-3.6604004-2.376709-4.53588868s-3.1662597-1.31323242-5.357666-1.31323242c-2.3095703 0-4.1008301.58276367-5.3737793 1.74829102-1.2729492 1.16552734-1.9094238 2.55932618-1.9094238 4.18139648 0 1.375.4082031 2.4277344 1.2246094 3.1582031.8164062.741211 2.2182617 1.3588867 4.2055664 1.8530274 2.7607421.6552734 4.355957 1.1171875 4.7856445 1.3857422.4296875.2685546.6445312.6606445.6445312 1.1762695 0 .5371094-.2658691.9399414-.7976074 1.2084961s-1.2487793.402832-2.151123.402832c-1.5361328 0-2.5888672-.3061523-3.1582032-.918457-.3222656-.34375-.5317382-.9238281-.6284179-1.7402344h-4.6567383c0 1.8046875.657959 3.2897949 1.9738769 4.4553223 1.315918 1.1655273 3.3542481 1.748291 6.1149903 1.748291zm25.8457031-.5961914v-14.16357424h3.0131836v-3.23876953h-3.0131836v-1.48242187c0-.34375.1154785-.65795899.3464356-.94262696.230957-.28466797.6499023-.41894531 1.2568359-.40283203s1.0393066.04028321 1.2971191.07250977v-3.73828125c-.4082031-.03222656-.7304687-.05639649-.9667968-.07250977-.2363282-.01611328-.4995118-.02416992-.7895508-.02416992-2.5458985 0-4.1518555.52636719-4.8178711 1.57910156-.6337891.70898438-.9506836 2.00341797-.9506836 3.88330078v1.12792969h-2.5136719v3.23876953h2.5620117v14.16357424zm10.2319336 0v-8.3950196c0-1.4072265.177246-2.4492187.531738-3.1259765.633789-1.203125 1.874512-1.8046875 3.722168-1.8046875.139649 0 .322266.0053711.547852.0161133s.483398.0322265.773437.0644531v-4.70507813c-.204101-.01074219-.335693-.01879883-.394775-.02416992-.059082-.0053711-.131592-.00805664-.217529-.00805664-1.375 0-2.492188.35986328-3.351563 1.07958984-.526367.4296875-1.144043 1.22998047-1.853027 2.40087891v-3.06152344h-4.3828127v17.56347658zm12.568359.5478515c1.246094 0 2.363282-.2846679 3.351563-.8540039.827148-.4833984 1.557617-1.0688476 2.191406-1.7563476.032227.3974609.075195.7519531.128906 1.0634765.053711.3115235.150391.6445313.290039.9990235h4.995118v-.6767578c-.300782-.1396485-.526368-.3168946-.676758-.5317383-.150391-.2148438-.241699-.6230469-.273926-1.2246094-.021484-.7949219-.032227-1.4716797-.032227-2.0302734v-8.0566407c0-2.11621089-.746582-3.55566401-2.239746-4.31835932-1.493164-.76269532-3.201172-1.14404297-5.124023-1.14404297-2.954102 0-5.038086.7734375-6.251953 2.3203125-.762696.98828125-1.192383 2.25048829-1.289063 3.78662109h4.431153c.107422-.6767578.322265-1.2138672.644531-1.6113281.451172-.5371094 1.219238-.80566409 2.304199-.80566409.966797 0 1.699951.13696289 2.199463.41088869s.749268.7707519.749268 1.4904785c0 .5908203-.327637 1.0258789-.982911 1.3051758-.365234.1611328-.972168.2954101-1.8208.402832l-1.562989.1933594c-1.772461.2255859-3.115234.6015625-4.02832 1.1279297-1.665039.9667968-2.497559 2.5297851-2.497559 4.6889648 0 1.6650391.518311 2.951416 1.554932 3.8591309 1.036621.9077148 2.349854 1.3615722 3.939697 1.3615722zm1.353516-3.3354492c-.623047 0-1.1521-.1745605-1.587158-.5236816-.435059-.3491211-.652588-.9157715-.652588-1.6999512 0-.8808594.354492-1.5307617 1.063476-1.949707.418946-.2470703 1.111817-.456543 2.078614-.628418l1.03125-.1933594c.515625-.0966797.921142-.201416 1.216552-.3142089.295411-.112793.588135-.2604981.878174-.4431153v1.7080078c-.032226 1.5361328-.464599 2.5942383-1.297119 3.1743164-.832519.5800782-1.74292.8701172-2.731201.8701172zm17.418457-16.87060544v-4.23779297h-4.656738v4.23779297zm0 19.65820314v-17.56347658h-4.656738v17.56347658zm11.456543.5961914c2.707031 0 4.707764-.5505371 6.002197-1.6516113 1.294434-1.1010743 1.941651-2.5217286 1.941651-4.2619629 0-1.3212891-.451172-2.4223633-1.353516-3.3032227-.913086-.8701172-2.282715-1.5200195-4.108887-1.949707-2.739258-.6015625-4.334472-1.0258789-4.785644-1.2729492-.451172-.2363282-.676758-.6176758-.676758-1.144043 0-.4189453.212158-.7841797.636475-1.09570313.424316-.31152344 1.135986-.46728516 2.135009-.46728516 1.213868 0 2.073243.31152344 2.578125.93457029.268555.34375.435059.8110352.499512 1.4018555h4.592285c-.204101-2.14843751-.996338-3.6604004-2.376709-4.53588868s-3.16626-1.31323242-5.357666-1.31323242c-2.30957 0-4.10083.58276367-5.373779 1.74829102-1.272949 1.16552734-1.909424 2.55932618-1.909424 4.18139648 0 1.375.408203 2.4277344 1.224609 3.1582031.816407.741211 2.218262 1.3588867 4.205567 1.8530274 2.760742.6552734 4.355957 1.1171875 4.785644 1.3857422.429688.2685546.644532.6606445.644532 1.1762695 0 .5371094-.265869.9399414-.797608 1.2084961-.531738.2685547-1.248779.402832-2.151123.402832-1.536133 0-2.588867-.3061523-3.158203-.918457-.322266-.34375-.531738-.9238281-.628418-1.7402344h-4.656738c0 1.8046875.657959 3.2897949 1.973877 4.4553223 1.315918 1.1655273 3.354248 1.748291 6.11499 1.748291z"/>
            <path d="m0 25.862793v1.6274414h151.790996v-1.6274414z"/>
        </g>
        <g transform="translate(.4)">
            <path d="m24.6791907 0c-13.836467 0-24.6791907 10.8846154-24.6791907 24.8269231 0 13.9038461 10.8427237 24.8269231 24.6791907 24.8269231 13.8172762 0 24.6408093-10.9038462 24.6408093-24.8269231 0-13.9423077-10.8427237-24.8269231-24.6408093-24.8269231"
                  fill="#a5a5a5"/>
            <g fill="#fff">
                <path d="m14.5976394 26.8653846c0 2.0961539 1.1861778 3.3076923 2.8889168 3.3076923 1.6453434 0 2.5636746-1.2115384 2.5636746-2.5384615 0-1.5961539-.7461441-2.6730769-2.8315212-2.6730769h-1.7410028v-3.4423077h1.7410028c1.9705857 0 2.5445427-.9615385 2.5445427-2.3846154 0-1.4615385-.8991993-2.1538462-2.2001685-2.1538462-1.894058 0-2.4488831 1.1346154-2.4488831 2.8076923h-4.4386007c0-3.2884615 2.0279813-6.1923077 6.7918243-6.1923077 3.5394014 0 6.6961649 1.7884616 6.6961649 5.4038462 0 2.1730769-1.2818373 3.75-2.8315212 4.2884615 1.7410029.6346154 3.1376316 2.2115385 3.1376316 4.673077 0 3.6730769-3.2715549 5.7884615-6.9257477 5.7884615-4.7447111 0-7.3849132-2.8076923-7.3849132-6.9038462h4.4386007z"/>
                <path d="m39.8708787 33.3653846h-4.8595025l-2.1810365-3.8653846-2.1619047 3.8653846h-4.8595025l4.5533921-6.7115384-4.4768645-6.5961539h4.8595025l2.0853771 3.75 2.1045089-3.75h4.8595025l-4.4577326 6.5961539z"/>
            </g>
        </g>
    </g>
</svg>
