<svg xmlns="http://www.w3.org/2000/svg" width="298.36243" height="40.713001" viewBox="0 0 467.43447 40.713002">
  <g fill="none">
    <path fill="#a5a5a5" d="M135.284362-11.36186203c-13.602781 0-24.240117 10.86425693-24.240117 24.74636235 0 13.88210643 10.656468 24.7658332 24.240117 24.7658332 13.564516 0 24.201878-10.88372677 24.201878-24.7658332.01911-13.88210542-10.637361-24.74636235-24.201878-24.74636235m0 41.04274768c-8.647619 0-15.669026-7.14548757-15.669026-16.2769151s7.040539-16.29638513 15.669026-16.29638513c8.590223 0 15.649932 7.1649576 15.649932 16.29638513.01909 9.1119573-7.059709 16.2769151-15.649932 16.2769151M305.67306-11.36186203l-18.51968 45.98812684-4.57252 11.38994662-2.52541 6.28880767h-9.12592l7.0788-17.65928508-18.94058-46.00759605h9.64248l13.85149 34.57870998 13.88976-34.57870998ZM186.25174-3.18446445c-8.55196 0-12.91403 4.6727983-12.91403 13.90157595v27.35534213h-8.78154V10.07460107c.0765-4.9064377.93746-8.37209674 2.90805-11.64305605 2.33409-3.6603589 7.86321-9.81287704 18.78752-9.81287704 10.90518 0 16.45344 6.15251814 18.7684 9.81287704 1.95145 3.25148908 2.83152 6.73661836 2.88891 11.64305605v27.99785256h-8.78154V10.7171115c0-9.22877765-4.32381-13.90157595-12.87577-13.90157595m35.85318 12.09086602c1.16705-5.97728807 6.79183-11.81828607 14.34893-11.81828607 7.53797 0 13.16274 5.840998 14.31066 11.81828607zm37.88116 3.83558933c-.07652-13.25906623-10.59907-24.04544296-23.47484-24.04544296-13.23927 0-23.62789 10.82531719-23.62789 24.64901294 0 6.48350792 2.44888 12.63602602 6.83008 17.34776447 4.47687 4.7506789 10.36949 7.37912828 16.62562 7.37912828 7.15534 0 17.19958-3.5045995 21.96343-13.41482603.0957-.21417048.11479-.3115206.11479-.3115206h-9.60422l-.0574.05840764c-2.58281 3.13466923-7.44231 5.25689774-12.07223 5.25689774-5.89263 0-12.9523-3.95240867-14.88462-12.86966572h37.97682c.11479-.9345598.21045-2.78420917.21045-4.0497588M80.203623-11.478682C66.409523-11.478682 55.6-.45866565 55.6 13.65708047c0 14.07680568 10.809523 25.13576248 24.603623 25.13576248 13.774968 0 24.565359-11.03948657 24.565359-25.13576248 0-14.11574612-10.809523-25.13576247-24.565359-25.13576247"/>
    <path fill="#fff" d="M95.470879 22.30175838h-4.859503l-2.181036-3.91346923-2.161905 3.91346923h-4.859502l4.553392-6.79502853-4.476865-6.67820818h4.859503l2.085377 3.79664888 2.104509-3.79664888h4.859502l-4.457733 6.67820818zm-22.6944625-3.92523985H64.808164V3.80828677h4.6131988v10.6318662h3.3550537v-5.5550583h4.5949645v5.5550583h2.425121v3.93636556h-2.425121v5.55505718h-4.5949645Z"/>
    <path fill="#a5a5a5" d="M323.7523438 33.67227224c2.7070312 0 4.7077632-.55738552 6.0021972-1.67215655 1.294434-1.11477103 1.94165-2.55309855 1.94165-4.31498054 0-1.33772544-.451172-2.45249647-1.353515-3.3443141-.913086-.880941-2.282715-1.53892758-4.108887-1.97396077-2.7392578-.60904525-4.3344726-1.03864063-4.7856445-1.2887841-.4511718-.23926786-.6767578-.62535971-.6767578-1.15827456 0-.42415655.2121582-.79393496.6364746-1.10933321.4243164-.31539876 1.1359864-.4730981 2.1350098-.4730981 1.2138669 0 2.0732419.31539877 2.5781249.94619598.268555.34802615.435059.82112403.499512 1.41929467h4.592285c-.204102-2.17516382-.996338-3.70593509-2.376709-4.5923142-1.380371-.88637911-3.16626-1.32956862-5.357666-1.32956862-2.3095703 0-4.1008301.5900131-5.3737793 1.77003922-1.2729493 1.1800262-1.9094239 2.59116375-1.9094239 4.23341182 0 1.39210458.4082032 2.45793428 1.2246094 3.1974901.8164063.75043144 2.2182617 1.37579114 4.2055664 1.8760781 2.7607422.6634254 4.3559574 1.13108548 4.7856444 1.40298122.429688.27189473.644531.66886221.644531 1.19090143 0 .5437915-.265869.9516346-.797607 1.22352933-.531738.27189575-1.248779.40784311-2.1511231.40784311-1.5361328 0-2.5888672-.30996044-3.1582031-.92988233-.3222656-.34802615-.5317383-.93532014-.628418-1.76188199h-4.6567382c0 1.82713677.6579589 3.33071907 1.9738769 4.51074487 1.315918 1.18002682 3.3542481 1.77003922 6.1149903 1.77003922zm15.6459962-.04894134c1.246094 0 2.363281-.28820918 3.351562-.86462755.827149-.48941133 1.557617-1.08214314 2.191407-1.77819543.03223.4024053.0752.76130707.128906 1.07670532.05371.31539927.15039.65254979.290039 1.01145156h4.995117v-.68517667c-.300781-.14138619-.526367-.32083708-.676758-.53835266-.15039-.2175166-.241699-.63079752-.273925-1.23984378-.02148-.80481059-.03223-1.48998624-.03223-2.05552899v-8.1568632c0-2.14253572-.746582-3.59989518-2.239746-4.37207818-1.493164-.772183-3.201172-1.15827456-5.124024-1.15827456-2.954101 0-5.038085.78305883-6.251953 2.3491765-.762695 1.00057522-1.192382 2.278484-1.289062 3.83372603h4.431152c.107422-.68517666.322266-1.22896815.644531-1.63137345.451172-.54379047 1.219239-.81568591 2.3042-.81568591.966797 0 1.699951.13866668 2.199463.41600003.499511.27733356.749267.78033992.749267 1.50902011 0 .59816963-.327637 1.03863962-.98291 1.32141099-.365234.16313744-.972168.2990848-1.820801.4078431l-1.562988.19576535c-1.772461.22839222-3.115234.60904525-4.02832 1.1419601-1.665039.97882366-2.497559 2.56125577-2.497559 4.74729431 0 1.68575159.518311 2.98813073 1.554932 3.90713743 1.036621.9190067 2.349853 1.37850955 3.939697 1.37850955zm1.353515-3.37694098c-.623046 0-1.152099-.17673148-1.587158-.53019544-.435058-.35346497-.652588-.92716393-.652588-1.72109889 0-.89181662.354493-1.5498032 1.063477-1.97396077.418945-.25014348 1.111816-.46222226 2.078613-.63623533l1.03125-.19576433c.515625-.09788267.921143-.20392155 1.216553-.31811767.29541-.1141961.588135-.26373851.878174-.44862721v1.7292541c-.03223 1.55524203-.4646 2.62651055-1.297119 3.21380454-.83252.587294-1.74292.880941-2.731202.880941zm17.305665 2.82227488v-9.62509819c0-1.09845759.15039-2.00115085.451171-2.70807877.580079-1.33772544 1.648926-2.00658806 3.206543-2.00658806 1.267579 0 2.126954.45678384 2.578125 1.37035273.247071.50028796.370606 1.21809151.370606 2.15341166V33.0686648h4.705078V21.09438961c0-2.22954216-.577393-3.8255683-1.732178-4.78807812-1.154785-.96250982-2.639892-1.44376473-4.455322-1.44376473-1.450195 0-2.647949.35890198-3.593262 1.07670593-.526367.4024052-1.084961 1.06039219-1.675781 1.97396077v-2.59388235h-4.431152V33.0686648Zm22.558593.60360744c2.707032 0 4.707764-.55738552 6.002197-1.67215655 1.294434-1.11477103 1.941651-2.55309855 1.941651-4.31498054 0-1.33772544-.451172-2.45249647-1.353516-3.3443141-.913086-.880941-2.282714-1.53892758-4.108886-1.97396077-2.739258-.60904525-4.334473-1.03864063-4.785645-1.2887841-.451172-.23926786-.676758-.62535971-.676758-1.15827456 0-.42415655.212159-.79393496.636475-1.10933321.424316-.31539876 1.135986-.4730981 2.13501-.4730981 1.213867 0 2.073242.31539877 2.578125.94619598.268554.34802615.435058.82112403.499511 1.41929467h4.592286c-.204102-2.17516382-.996338-3.70593509-2.376709-4.5923142-1.380372-.88637911-3.16626-1.32956862-5.357666-1.32956862-2.309571 0-4.100831.5900131-5.37378 1.77003922-1.272949 1.1800262-1.909424 2.59116375-1.909424 4.23341182 0 1.39210458.408204 2.45793428 1.22461 3.1974901.816406.75043144 2.218262 1.37579114 4.205566 1.8760781 2.760742.6634254 4.355957 1.13108548 4.785645 1.40298122.429687.27189473.644531.66886221.644531 1.19090143 0 .5437915-.265869.9516346-.797607 1.22352933-.531739.27189575-1.24878.40784311-2.151123.40784311-1.536133 0-2.588868-.30996044-3.158204-.92988233-.322265-.34802615-.531738-.93532014-.628418-1.76188199h-4.656738c0 1.82713677.657959 3.33071907 1.973877 4.51074487 1.315918 1.18002682 3.354248 1.77003922 6.11499 1.77003922zm25.845703-.60360744V18.72889978H409.475v-3.27905892h-3.013184v-1.50086268c0-.34802615.115479-.66614381.346436-.954353.230957-.28820918.649902-.42415685 1.256836-.4078431.606934.01631343 1.039307.0407841 1.297119.073412V8.87540946c-.408203-.03262744-.730469-.05709804-.966797-.07341177-.236328-.01631372-.499512-.02447058-.789551-.02447058-2.545898 0-4.151855.53291504-4.817871 1.59874515-.633789.71780385-.950683 2.02833982-.950683 3.9316078v1.1419608h-2.513672v3.27905892h2.562012V33.0686648Zm10.231934 0v-8.49945153c0-1.42473147.17725-2.47968554.53174-3.1648622.63379-1.21809152 1.87451-1.82713778 3.72217-1.82713778.13965 0 .32226.00546717.54785.0163104.22558.0108736.4834.03263093.77344.06525174v-4.76360118c-.20411-.01087562-.3357-.01903285-.39478-.02447066-.0591-.0054368-.13159-.00816027-.21753-.00816027-1.375 0-2.49219.3643399-3.35156 1.09301957-.52637.43503269-1.14404 1.2452811-1.85303 2.43074522v-3.0996045h-4.382812V33.0686648Zm12.56836.5546661c1.24609 0 2.36328-.28820918 3.35156-.86462755.82715-.48941133 1.55762-1.08214314 2.19141-1.77819543.0322.4024053.0752.76130707.1289 1.07670532.0537.31539927.1504.65254979.29004 1.01145156h4.99512v-.68517667c-.30078-.14138619-.52637-.32083708-.67676-.53835266-.15039-.2175166-.2417-.63079752-.27392-1.23984378-.0215-.80481059-.0322-1.48998624-.0322-2.05552899v-8.1568632c0-2.14253572-.74658-3.59989518-2.23975-4.37207818-1.49316-.772183-3.20117-1.15827456-5.12402-1.15827456-2.9541 0-5.03808.78305883-6.25195 2.3491765-.7627 1.00057522-1.19238 2.278484-1.28906 3.83372603h4.43115c.10742-.68517666.32226-1.22896815.64453-1.63137345.45117-.54379047 1.21924-.81568591 2.3042-.81568591.9668 0 1.69995.13866668 2.19946.41600003.49951.27733356.74927.78033992.74927 1.50902011 0 .59816963-.32764 1.03863962-.98291 1.32141099-.36524.16313744-.97217.2990848-1.8208.4078431l-1.56299.19576535c-1.77246.22839222-3.11524.60904525-4.02832 1.1419601-1.66504.97882366-2.49756 2.56125577-2.49756 4.74729431 0 1.68575159.51831 2.98813073 1.55493 3.90713743 1.03662.9190067 2.34986 1.37850955 3.9397 1.37850955zm1.35352-3.37694098c-.62305 0-1.1521-.17673148-1.58716-.53019544-.43506-.35346497-.65259-.92716393-.65259-1.72109889 0-.89181662.35449-1.5498032 1.06348-1.97396077.41894-.25014348 1.11181-.46222226 2.07861-.63623533l1.03125-.19576433c.51562-.09788267.92114-.20392155 1.21655-.31811767.29541-.1141961.58814-.26373851.87818-.44862721v1.7292541c-.0322 1.55524203-.4646 2.62651055-1.29712 3.21380454-.83252.587294-1.74292.880941-2.7312.880941zm17.41845-17.08047057V8.87540946h-4.65674v4.29050989Zm0 19.90274545V15.28670362h-4.65674V33.0686648Zm11.45655.60360744c2.70703 0 4.70776-.55738552 6.00219-1.67215655 1.29444-1.11477103 1.94165-2.55309855 1.94165-4.31498054 0-1.33772544-.45117-2.45249647-1.35351-3.3443141-.91309-.880941-2.28272-1.53892758-4.10889-1.97396077-2.73926-.60904525-4.33447-1.03864063-4.78564-1.2887841-.45118-.23926786-.67676-.62535971-.67676-1.15827456 0-.42415655.21216-.79393496.63647-1.10933321.42432-.31539876 1.13599-.4730981 2.13501-.4730981 1.21387 0 2.07324.31539877 2.57813.94619598.26855.34802615.43506.82112403.49951 1.41929467h4.59228c-.2041-2.17516382-.99633-3.70593509-2.37671-4.5923142-1.38037-.88637911-3.16626-1.32956862-5.35766-1.32956862-2.30957 0-4.10083.5900131-5.37378 1.77003922-1.27295 1.1800262-1.90942 2.59116375-1.90942 4.23341182 0 1.39210458.4082 2.45793428 1.2246 3.1974901.81641.75043144 2.21827 1.37579114 4.20557 1.8760791 2.76074.6634244 4.35596 1.13108448 4.78565 1.40298022.42968.27189473.64453.66886221.64453 1.19090143 0 .5437915-.26587.9516346-.79761 1.22352933-.53174.27189575-1.24878.40784311-2.15112.40784311-1.53614 0-2.58887-.30996044-3.15821-.92988233-.32226-.34802615-.53173-.93532014-.62841-1.76188199h-4.65674c0 1.82713677.65796 3.33071907 1.97387 4.51074487 1.31592 1.18002682 3.35425 1.77003922 6.115 1.77003922zM314.6 34.9620455v1.64768587h151.791V34.9620455zM24.679191-11.478682C10.842724-11.478682 0-.45866565 0 13.65708047c0 14.07680568 10.842724 25.13576248 24.679191 25.13576248 13.817276 0 24.640809-11.03948657 24.640809-25.13576248C49.32-.45866565 38.477276-11.478682 24.679191-11.478682"/>
    <path fill="#fff" d="M14.597639 15.72090033c0 2.12222851 1.186178 3.3488387 2.888917 3.3488387 1.645344 0 2.563675-1.22661019 2.563675-2.57003971 0-1.61600968-.746144-2.70632928-2.831521-2.70632928h-1.741003v-3.48512826h1.741003c1.970585 0 2.544542-.97350026 2.544542-2.41427991 0-1.4797191-.899199-2.1806392-2.200168-2.1806392-1.894058 0-2.448883 1.14873028-2.448883 2.84261885H10.6756c0-3.32936847 2.027981-6.26933744 6.791824-6.26933744 3.539402 0 6.696165 1.81070892 6.696165 5.47106822 0 2.20010943-1.281837 3.79664888-2.831521 4.34180817 1.741003.64251043 3.137632 2.23904988 3.137632 4.73120867 0 3.71876898-3.271555 5.86046874-6.925748 5.86046874-4.744711 0-7.384913-2.84261885-7.384913-6.98972778h4.4386zm25.27324 6.58085805h-4.859503l-2.181036-3.91346923-2.161905 3.91346923h-4.859502l4.553392-6.79502853-4.476865-6.67820818h4.859503l2.085377 3.79664888 2.104509-3.79664888h4.859502l-4.457733 6.67820818z"/>
  </g>
</svg>
