<svg width="190" height="40" xmlns="http://www.w3.org/2000/svg">
    <g fill="none" fill-rule="evenodd">
        <path d="M151.19 18.905c-.043-7.06-5.742-12.801-12.717-12.801-7.174 0-12.802 5.76-12.802 13.117 0 3.453 1.324 6.732 3.703 9.234 2.42 2.533 5.614 3.93 9.012 3.93 3.878 0 9.313-1.864 11.898-7.147a.715.715 0 00.066-.168h-5.2l-.031.035c-1.396 1.672-4.034 2.8-6.545 2.8-3.189 0-7.014-2.102-8.06-6.85h20.574c.045-.49.102-1.473.102-2.15zm-20.525-2.042c.634-3.18 3.677-6.286 7.769-6.286 4.086 0 7.129 3.107 7.754 6.286h-15.523zm-19.421-6.436c-4.638 0-6.993 2.486-6.993 7.404v14.565h-4.762V17.489c.045-2.613.508-4.461 1.574-6.196 1.264-1.948 4.258-5.226 10.181-5.226 5.906 0 8.911 3.278 10.171 5.226 1.056 1.735 1.535 3.583 1.564 6.196v14.907h-4.758V17.83c0-4.918-2.343-7.404-6.977-7.404zm64.697-4.354l-10.036 24.485-2.48 6.059-1.37 3.35h-4.948l3.84-9.402L150.69 6.073h5.229l7.509 18.41 7.526-18.41h4.987zM83.631 27.92c-4.681 0-8.491-3.808-8.491-8.667 0-4.86 3.81-8.676 8.492-8.676 4.652 0 8.483 3.816 8.483 8.676 0 4.859-3.831 8.667-8.483 8.667zm0-21.847c-7.364 0-13.133 5.784-13.133 13.179 0 7.388 5.769 13.18 13.134 13.18 7.348 0 13.114-5.792 13.114-13.18 0-7.395-5.766-13.18-13.114-13.18zM23.331 6.01C15.854 6.01 10 11.88 10 19.384c0 7.5 5.854 13.38 13.331 13.38 7.459 0 13.311-5.88 13.311-13.38 0-7.504-5.852-13.376-13.311-13.376" fill="#B2B2B2"/>
        <path d="M17.91 20.496c0 1.132.64 1.787 1.564 1.787.892 0 1.384-.655 1.384-1.37 0-.863-.402-1.443-1.532-1.443h-.94v-1.861h.94c1.07 0 1.382-.521 1.382-1.28 0-.79-.49-1.161-1.19-1.161-1.027 0-1.324.61-1.324 1.518h-2.41c0-1.771 1.1-3.333 3.674-3.333 1.92 0 3.632.967 3.632 2.917 0 1.175-.7 2.023-1.533 2.307.938.34 1.697 1.19 1.697 2.515 0 1.979-1.771 3.125-3.751 3.125-2.575 0-4.003-1.518-4.003-3.721h2.41zM31.603 23.993H28.97l-1.177-2.084-1.174 2.084h-2.635l2.47-3.617-2.425-3.556h2.634l1.13 2.024 1.132-2.024h2.634l-2.41 3.556z" fill="#FFF"/>
        <g>
            <path d="M53.373 6c-7.476 0-13.331 5.872-13.331 13.376 0 7.499 5.854 13.379 13.331 13.379 7.459 0 13.312-5.88 13.312-13.379C66.684 11.872 60.83 6 53.373 6" fill="#B2B2B2"/>
            <path fill="#FFF" d="M61.645 23.984h-2.634L57.835 21.9l-1.175 2.084h-2.635l2.47-3.617-2.425-3.556h2.635l1.13 2.024 1.131-2.024h2.635l-2.41 3.556zM49.468 21.24h-4.375v-7.922h2.53v5.78h1.845v-3.014h2.516v3.015h1.328v2.14h-1.328v3.017h-2.516z"/>
        </g>
    </g>
</svg>
