<svg width="40" height="40" xmlns="http://www.w3.org/2000/svg">
    <g fill="none" fill-rule="evenodd">
        <path d="M23.332 6C15.855 6 10 11.872 10 19.376c0 7.499 5.855 13.379 13.332 13.379 7.458 0 13.311-5.88 13.311-13.379C36.643 11.872 30.79 6 23.332 6" fill="#81BC00"/>
        <path fill="#FFF" d="M31.6039 23.9839h-2.634l-1.176-2.084-1.175 2.084h-2.635l2.47-3.617-2.425-3.556h2.635l1.13 2.024 1.131-2.024h2.635l-2.411 3.556zM19.4262 21.2397h-4.375v-7.922h2.531v5.781h1.844v-3.015h2.516v3.015h1.328v2.141h-1.328v3.016h-2.516z"/>
    </g>
</svg>
