<svg width="128" height="40" xmlns="http://www.w3.org/2000/svg">
    <path d="M93.6922 18.838c-.043-7.059-5.742-12.801-12.717-12.801-7.174 0-12.802 5.761-12.802 13.117 0 3.453 1.324 6.732 3.703 9.234 2.42 2.533 5.614 3.93 9.012 3.93 3.878 0 9.313-1.864 11.898-7.147.056-.112.066-.168.066-.168h-5.2l-.031.035c-1.396 1.672-4.034 2.8-6.545 2.8-3.189 0-7.014-2.102-8.06-6.849h20.574c.045-.49.102-1.474.102-2.151zm-20.525-2.042c.634-3.179 3.677-6.286 7.769-6.286 4.086 0 7.129 3.107 7.754 6.286h-15.523zm-19.421-6.436c-4.6382 0-6.9932 2.486-6.9932 7.404v14.565h-4.762V17.422c.045-2.613.508-4.461 1.574-6.196C44.829 9.278 47.823 6 53.7462 6c5.906 0 8.911 3.278 10.171 5.226 1.056 1.735 1.535 3.583 1.564 6.196v14.907h-4.758V17.764c0-4.918-2.343-7.404-6.977-7.404zm64.697-4.354l-10.036 24.485-2.48 6.059-1.37 3.351h-4.948l3.84-9.403-10.257-24.492h5.229l7.509 18.411 7.526-18.411h4.987zM26.134 27.853c-4.682 0-8.492-3.808-8.492-8.667 0-4.86 3.81-8.676 8.492-8.676 4.652 0 8.483 3.816 8.483 8.676 0 4.859-3.831 8.667-8.483 8.667zm0-21.847C18.769 6.006 13 11.79 13 19.185c0 7.388 5.769 13.18 13.134 13.18 7.348 0 13.114-5.792 13.114-13.18 0-7.395-5.766-13.179-13.114-13.179z" fill="#81BC00" fill-rule="evenodd"/>
</svg>
