<svg width="150" height="48" viewBox="0 0 150 48" version="1.1" xmlns="http://www.w3.org/2000/svg" xmlns:xlink="http://www.w3.org/1999/xlink">
    <title>FR_4x_fr_v</title>
    <g id="Oney-logo" stroke="none" stroke-width="1" fill="none" fill-rule="evenodd">
        <g id="Group-2">
            <g id="4x-checkout-simple-FR-vert" fill-rule="nonzero">
                <g id="Group">
                    <path d="M47.7966491,0.0692105433 C39.6373652,0.0692105433 33.2568281,6.50579107 33.2568281,14.7303106 C33.2568281,22.9548302 39.6488409,29.4029458 47.7966491,29.4029458 C55.9329814,29.4029458 62.3135493,22.9548302 62.3135493,14.7303106 C62.3249943,6.50579107 55.9329814,0.0692105433 47.7966491,0.0692105433 M47.7966491,24.3851814 C42.6095938,24.3851814 38.3979803,20.1518032 38.3979803,14.7418457 C38.3979803,9.33188826 42.6210695,5.08697493 47.7966491,5.08697493 C52.949277,5.08697493 57.1838884,9.33188826 57.1838884,14.7418457 C57.1953179,20.1402681 52.949277,24.3851814 47.7966491,24.3851814 M150,0.0692105433 L138.891439,27.3150944 L136.148726,34.0631224 L134.633922,37.7889567 L129.159972,37.7889567 L133.406013,27.3266295 L122.044985,0.0692105433 L127.828781,0.0692105433 L136.13725,20.5555314 L144.468671,0.0692105433 L150,0.0692105433 Z M78.3681432,4.91394858 C73.2384668,4.91394858 70.6219876,7.68237031 70.6219876,13.1500032 L70.6219876,29.3568055 L65.3546018,29.3568055 L65.3546018,12.7693452 C65.4005049,9.86250242 65.9169153,7.8092563 67.0989213,5.87136109 C68.4989672,3.70276407 71.8154694,0.0576754528 78.3681432,0.0576754528 C84.9093413,0.0576754528 88.2373193,3.70276407 89.6258894,5.87136109 C90.7964196,7.79772121 91.3243057,9.86250242 91.3587331,12.7693452 L91.3587331,29.3568055 L86.0913473,29.3568055 L86.0913473,13.1500032 C86.0913473,7.68237031 83.4978196,4.91394858 78.3681432,4.91394858 M99.8737664,12.0772398 C100.573789,8.53596701 103.94767,5.07543984 108.480606,5.07543984 C113.002066,5.07543984 116.375947,8.53596701 117.064494,12.0772398 L99.8737664,12.0772398 Z M122.595823,14.3496526 C122.54992,6.49425598 116.238237,0.103815815 108.515033,0.103815815 C100.573789,0.103815815 94.3424375,6.51732616 94.3424375,14.7072405 C94.3424375,18.5484256 95.8113381,22.1935142 98.4392931,24.9850061 C101.124627,27.7995682 104.659169,29.3568055 108.411751,29.3568055 C112.703695,29.3568055 118.728483,27.2804892 121.585954,21.4091281 C121.643333,21.2822421 121.654808,21.2245666 121.654808,21.2245666 L115.893964,21.2245666 L115.859536,21.2591719 C114.310305,23.1163215 111.395456,24.3736463 108.618315,24.3736463 C105.083773,24.3736463 100.849208,22.032023 99.6901538,16.7489515 L122.469589,16.7489515 C122.538444,16.1952671 122.595823,15.0994335 122.595823,14.3496526" id="Shape" fill="#81BC00"></path>
                    <g id="Group-3">
                        <path d="M14.7578609,0 C6.48381914,0 0,6.52886125 0,14.8918019 C0,23.2316724 6.48381914,29.7836038 14.7578609,29.7836038 C23.0204269,29.7836038 29.4927703,23.2432075 29.4927703,14.8918019 C29.4927703,6.52886125 23.0089511,0 14.7578609,0" id="Path" fill="#81BC00"></path>
                        <polygon id="Path" fill="#FFFFFF" points="23.9155382 20.0133821 21.0006885 20.0133821 19.6924489 17.6948289 18.3956851 20.0133821 15.4808354 20.0133821 18.2120725 15.9876355 15.5267386 12.0310994 18.4415882 12.0310994 19.6924489 14.2804421 20.9547854 12.0310994 23.8696351 12.0310994 21.1957769 15.9876355"></polygon>
                        <g id="Group" transform="translate(5.523284, 9.056837)" fill="#FFFFFF">
                            <polygon id="Path" points="4.77955473 8.63101788 0 8.63101788 0 0 2.76711064 0 2.76711064 6.29889941 4.77955473 6.29889941 4.77955473 3.00777896 7.53572817 3.00777896 7.53572817 6.29889941 8.99037527 6.29889941 8.99037527 8.63101788 7.53572817 8.63101788 7.53572817 11.9221383 4.77955473 11.9221383"></polygon>
                        </g>
                    </g>
                </g>
                <g id="sans-frais" transform="translate(47.827397, 33.710314)" fill="#81BC00">
                    <path d="M3.88152192,11.7992081 C5.18051731,11.7992081 6.1405883,11.5350275 6.76173491,11.0066663 C7.38288151,10.478305 7.69345481,9.79659019 7.69345481,8.96152173 C7.69345481,8.32748827 7.47695558,7.79912705 7.04395712,7.37643808 C6.60580391,6.95890385 5.9485741,6.64704186 5.07226769,6.44085212 C3.75780808,6.15218648 2.99232865,5.9485741 2.77582942,5.830015 C2.55933019,5.71661064 2.45108058,5.53361724 2.45108058,5.28103481 C2.45108058,5.07999981 2.55288676,4.90473853 2.75649914,4.75525096 C2.96011151,4.6057634 3.30161327,4.53101962 3.78100442,4.53101962 C4.36349045,4.53101962 4.77586994,4.68050718 5.01814289,4.97948231 C5.14701148,5.1444341 5.22691,5.36866545 5.25783846,5.65217635 L5.25783846,5.65217635 L7.46149135,5.65217635 C7.36355122,4.62122763 6.98338888,3.89569747 6.32100433,3.47558587 C5.65861978,3.05547426 4.80164365,2.84541846 3.75007596,2.84541846 C2.64180609,2.84541846 1.7822526,3.1250633 1.17141548,3.68435298 C0.560578366,4.24364266 0.255159808,4.91247064 0.255159808,5.69083692 C0.255159808,6.3506441 0.451040064,6.85580898 0.842800577,7.20633154 C1.23456109,7.56200885 1.90725513,7.8584066 2.86088269,8.09552481 C4.1856518,8.40996417 4.95113122,8.63161814 5.15732096,8.76048673 C5.36351071,8.88935532 5.46660558,9.07750346 5.46660558,9.32493116 C5.46660558,9.58266834 5.33902567,9.77597122 5.08386587,9.90483981 C4.82870606,10.0337084 4.48462692,10.0981427 4.05162846,10.0981427 C3.31450013,10.0981427 2.80933526,9.9512325 2.53613385,9.65741212 C2.38149154,9.49246032 2.28097404,9.21410417 2.23458135,8.82234366 L2.23458135,8.82234366 L0,8.82234366 C0,9.68834058 0.315728045,10.4009839 0.947184135,10.9602736 C1.57864022,11.5195632 2.55675282,11.7992081 3.88152192,11.7992081 Z M11.389406,11.7760117 C11.9873562,11.7760117 12.5234496,11.639411 12.997686,11.3662096 C13.3946012,11.1342462 13.7451238,10.8533126 14.0492537,10.523409 C14.0647179,10.7141346 14.0853369,10.8842411 14.1111106,11.0337287 C14.1368843,11.1832162 14.183277,11.3430133 14.2502887,11.5131198 L14.2502887,11.5131198 L16.6472444,11.5131198 L16.6472444,11.188371 C16.5029116,11.1213593 16.394662,11.036306 16.3224956,10.9332112 C16.2503292,10.8301163 16.2065138,10.634236 16.1910496,10.3455704 C16.1807401,9.96411936 16.1755854,9.63937052 16.1755854,9.37132385 L16.1755854,9.37132385 L16.1755854,5.50526616 C16.1755854,4.48978167 15.8173307,3.79904603 15.1008213,3.43305923 C14.384312,3.06707244 13.5647078,2.88407904 12.6420087,2.88407904 C11.2244542,2.88407904 10.2244339,3.25522058 9.64194789,3.99750365 C9.27596109,4.47174007 9.06977135,5.07742244 9.02337866,5.81455077 L9.02337866,5.81455077 L11.1497104,5.81455077 C11.2012578,5.48980192 11.3043527,5.23206474 11.458995,5.04133923 C11.6754942,4.78360205 12.0440584,4.65473346 12.5646875,4.65473346 C13.0286144,4.65473346 13.3804257,4.72045644 13.6201213,4.8519024 C13.8598168,4.98334837 13.9796646,5.22175526 13.9796646,5.56712308 C13.9796646,5.85063398 13.8224449,6.05940109 13.5080056,6.19342442 C13.3327443,6.27074558 13.0415013,6.33517987 12.6342765,6.38672731 L12.6342765,6.38672731 L11.8842613,6.47951269 C11.0337287,6.58776231 10.3893857,6.76817833 9.9512325,7.02076077 C9.15224725,7.48468769 8.75275462,8.23470289 8.75275462,9.27080635 C8.75275462,10.0697916 9.001471,10.6870721 9.49890375,11.122648 C9.99633651,11.5582238 10.6265039,11.7760117 11.389406,11.7760117 Z M12.0389037,10.1754638 C11.7399285,10.1754638 11.4860574,10.0916993 11.2772903,9.9241701 C11.0685232,9.75664093 10.9641396,9.48472821 10.9641396,9.10843193 C10.9641396,8.68574295 11.1342462,8.37388096 11.4744592,8.17284596 C11.6754942,8.05428686 12.0079752,7.95376936 12.4719021,7.87129346 L12.4719021,7.87129346 L12.9667575,7.77850808 C13.2141852,7.73211539 13.4087768,7.68185664 13.5505322,7.62773183 C13.6922877,7.57360702 13.8327544,7.5027293 13.9719325,7.41509866 L13.9719325,7.41509866 L13.9719325,8.23470289 C13.9564683,8.97183122 13.7489898,9.47957346 13.3494972,9.75792962 C12.9500046,10.0362858 12.5131401,10.1754638 12.0389037,10.1754638 Z M20.3431956,11.5131198 L20.3431956,6.95117173 C20.3431956,6.43054263 20.415362,6.00269891 20.5596948,5.66764058 C20.838051,5.03360712 21.350948,4.71659039 22.0983858,4.71659039 C22.7066455,4.71659039 23.119025,4.93308962 23.3355242,5.36608808 C23.4540833,5.60320628 23.5133629,5.94341936 23.5133629,6.38672731 L23.5133629,6.38672731 L23.5133629,11.5131198 L25.7711406,11.5131198 L25.7711406,5.83774712 C25.7711406,4.78102468 25.4940731,4.02456606 24.9399382,3.56837125 C24.3858032,3.11217644 23.6731599,2.88407904 22.8020083,2.88407904 C22.1061179,2.88407904 21.531364,3.05418558 21.0777465,3.39439865 C20.8251641,3.58512417 20.5571174,3.89698615 20.2736065,4.32998462 L20.2736065,4.32998462 L20.2736065,3.10057827 L18.1472748,3.10057827 L18.1472748,11.5131198 L20.3431956,11.5131198 Z M31.1681571,11.7992081 C32.4671525,11.7992081 33.4272235,11.5350275 34.0483701,11.0066663 C34.6695167,10.478305 34.98009,9.79659019 34.98009,8.96152173 C34.98009,8.32748827 34.7635908,7.79912705 34.3305923,7.37643808 C33.8924391,6.95890385 33.2352093,6.64704186 32.3589029,6.44085212 C31.0444433,6.15218648 30.2789639,5.9485741 30.0624646,5.830015 C29.8459654,5.71661064 29.7377158,5.53361724 29.7377158,5.28103481 C29.7377158,5.07999981 29.839522,4.90473853 30.0431343,4.75525096 C30.2467467,4.6057634 30.5882485,4.53101962 31.0676396,4.53101962 C31.6501256,4.53101962 32.0625051,4.68050718 32.3047781,4.97948231 C32.4336467,5.1444341 32.5135452,5.36866545 32.5444737,5.65217635 L32.5444737,5.65217635 L34.7481265,5.65217635 C34.6501864,4.62122763 34.2700241,3.89569747 33.6076395,3.47558587 C32.945255,3.05547426 32.0882789,2.84541846 31.0367112,2.84541846 C29.9284413,2.84541846 29.0688878,3.1250633 28.4580507,3.68435298 C27.8472136,4.24364266 27.541795,4.91247064 27.541795,5.69083692 C27.541795,6.3506441 27.7376753,6.85580898 28.1294358,7.20633154 C28.5211963,7.56200885 29.1938903,7.8584066 30.1475179,8.09552481 C31.472287,8.40996417 32.2377664,8.63161814 32.4439562,8.76048673 C32.6501459,8.88935532 32.7532408,9.07750346 32.7532408,9.32493116 C32.7532408,9.58266834 32.6256609,9.77597122 32.3705011,9.90483981 C32.1153413,10.0337084 31.7712621,10.0981427 31.3382637,10.0981427 C30.6011353,10.0981427 30.0959705,9.9512325 29.822769,9.65741212 C29.6681267,9.49246032 29.5676092,9.21410417 29.5212165,8.82234366 L29.5212165,8.82234366 L27.2866352,8.82234366 C27.2866352,9.68834058 27.6023632,10.4009839 28.2338193,10.9602736 C28.8652754,11.5195632 29.843388,11.7992081 31.1681571,11.7992081 Z M43.5704702,11.5131198 L43.5704702,4.71659039 L45.0163758,4.71659039 L45.0163758,3.16243519 L43.5704702,3.16243519 L43.5704702,3.16243519 L43.5704702,2.45108058 C43.5704702,2.28612878 43.6258837,2.13535253 43.7367107,1.99875183 C43.8475377,1.86215112 44.0485727,1.79771683 44.3398157,1.80544894 C44.6310587,1.81318106 44.8385371,1.82477923 44.962251,1.84024346 L44.962251,1.84024346 L44.962251,0.0463926923 C44.7663707,0.0309284615 44.6117284,0.0193302885 44.498324,0.0115981731 C44.3849197,0.00386605769 44.2586285,0 44.1194504,0 C42.8977762,0 42.127142,0.252582436 41.8075479,0.757747308 C41.503418,1.09796038 41.3513531,1.71910699 41.3513531,2.62118712 L41.3513531,2.62118712 L41.3513531,3.16243519 L40.1451431,3.16243519 L40.1451431,4.71659039 L41.3745494,4.71659039 L41.3745494,11.5131198 L43.5704702,11.5131198 Z M48.4803635,11.5131198 L48.4803635,7.48468769 C48.4803635,6.80941628 48.5654167,6.30940616 48.7355233,5.98465731 C49.0396532,5.40732603 49.635026,5.11866039 50.5216419,5.11866039 C50.5886536,5.11866039 50.6762842,5.12123776 50.7845339,5.1263925 C50.8927835,5.13154724 51.0164973,5.14185673 51.1556754,5.15732096 L51.1556754,5.15732096 L51.1556754,2.89954327 C51.0577353,2.89438853 50.9945897,2.89052247 50.9662386,2.8879451 C50.9378875,2.88536773 50.903093,2.88407904 50.861855,2.88407904 C50.2020478,2.88407904 49.6659545,3.05676295 49.253575,3.40213077 C49.0009926,3.60832051 48.7045948,3.99234891 48.3643817,4.55421596 L48.3643817,4.55421596 L48.3643817,3.08511404 L46.2612464,3.08511404 L46.2612464,11.5131198 L48.4803635,11.5131198 Z M54.5114135,11.7760117 C55.1093637,11.7760117 55.6454571,11.639411 56.1196935,11.3662096 C56.5166087,11.1342462 56.8671313,10.8533126 57.1712612,10.523409 C57.1867254,10.7141346 57.2073444,10.8842411 57.2331181,11.0337287 C57.2588918,11.1832162 57.3052845,11.3430133 57.3722962,11.5131198 L57.3722962,11.5131198 L59.7692519,11.5131198 L59.7692519,11.188371 C59.6249191,11.1213593 59.5166695,11.036306 59.4445031,10.9332112 C59.3723367,10.8301163 59.3285214,10.634236 59.3130571,10.3455704 C59.3027476,9.96411936 59.2975929,9.63937052 59.2975929,9.37132385 L59.2975929,5.50526616 C59.2975929,4.48978167 58.9393382,3.79904603 58.2228289,3.43305923 C57.5063195,3.06707244 56.6867153,2.88407904 55.7640162,2.88407904 C54.3464617,2.88407904 53.3464414,3.25522058 52.7639554,3.99750365 C52.3979686,4.47174007 52.1917789,5.07742244 52.1453862,5.81455077 L52.1453862,5.81455077 L54.2717179,5.81455077 C54.3232653,5.48980192 54.4263602,5.23206474 54.5810025,5.04133923 C54.7975017,4.78360205 55.1660659,4.65473346 55.686695,4.65473346 C56.1506219,4.65473346 56.5024332,4.72045644 56.7421288,4.8519024 C56.9818243,4.98334837 57.1016721,5.22175526 57.1016721,5.56712308 C57.1016721,5.85063398 56.9444524,6.05940109 56.6300131,6.19342442 C56.4547518,6.27074558 56.1635088,6.33517987 55.7562841,6.38672731 L55.7562841,6.38672731 L55.0062689,6.47951269 C54.1557362,6.58776231 53.5113932,6.76817833 53.07324,7.02076077 C52.2742548,7.48468769 51.8747621,8.23470289 51.8747621,9.27080635 C51.8747621,10.0697916 52.1234785,10.6870721 52.6209113,11.122648 C53.118344,11.5582238 53.7485114,11.7760117 54.5114135,11.7760117 Z M55.1609112,10.1754638 C54.861936,10.1754638 54.6080649,10.0916993 54.3992978,9.9241701 C54.1905307,9.75664093 54.0861471,9.48472821 54.0861471,9.10843193 C54.0861471,8.68574295 54.2562537,8.37388096 54.5964667,8.17284596 C54.7975017,8.05428686 55.1299827,7.95376936 55.5939096,7.87129346 L55.5939096,7.87129346 L56.088765,7.77850808 C56.3361927,7.73211539 56.5307843,7.68185664 56.6725397,7.62773183 C56.8142952,7.57360702 56.9547619,7.5027293 57.09394,7.41509866 L57.09394,7.41509866 L57.09394,8.23470289 C57.0784758,8.97183122 56.8709974,9.47957346 56.4715047,9.75792962 C56.0720121,10.0362858 55.6351476,10.1754638 55.1609112,10.1754638 Z M63.5193279,2.07993904 L63.5193279,0.0463926923 L61.2847466,0.0463926923 L61.2847466,2.07993904 L63.5193279,2.07993904 Z M63.5193279,11.5131198 L63.5193279,3.08511404 L61.2847466,3.08511404 L61.2847466,11.5131198 L63.5193279,11.5131198 Z M69.0168619,11.7992081 C70.3158573,11.7992081 71.2759283,11.5350275 71.8970749,11.0066663 C72.5182215,10.478305 72.8287948,9.79659019 72.8287948,8.96152173 C72.8287948,8.32748827 72.6122956,7.79912705 72.1792971,7.37643808 C71.7411439,6.95890385 71.0839141,6.64704186 70.2076077,6.44085212 C68.8931481,6.15218648 68.1276687,5.9485741 67.9111694,5.830015 C67.6946702,5.71661064 67.5864206,5.53361724 67.5864206,5.28103481 C67.5864206,5.07999981 67.6882268,4.90473853 67.8918392,4.75525096 C68.0954515,4.6057634 68.4369533,4.53101962 68.9163444,4.53101962 C69.4988305,4.53101962 69.91121,4.68050718 70.1534829,4.97948231 C70.2823515,5.1444341 70.36225,5.36866545 70.3931785,5.65217635 L70.3931785,5.65217635 L72.5968314,5.65217635 C72.4988912,4.62122763 72.1187289,3.89569747 71.4563443,3.47558587 C70.7939598,3.05547426 69.9369837,2.84541846 68.885416,2.84541846 C67.7771461,2.84541846 66.9175926,3.1250633 66.3067555,3.68435298 C65.6959184,4.24364266 65.3904998,4.91247064 65.3904998,5.69083692 C65.3904998,6.3506441 65.5863801,6.85580898 65.9781406,7.20633154 C66.3699011,7.56200885 67.0425951,7.8584066 67.9962227,8.09552481 C69.3209918,8.40996417 70.0864712,8.63161814 70.292661,8.76048673 C70.4988507,8.88935532 70.6019456,9.07750346 70.6019456,9.32493116 C70.6019456,9.58266834 70.4743657,9.77597122 70.2192059,9.90483981 C69.9640461,10.0337084 69.6199669,10.0981427 69.1869685,10.0981427 C68.4498401,10.0981427 67.9446753,9.9512325 67.6714739,9.65741212 C67.5168316,9.49246032 67.4163141,9.21410417 67.3699214,8.82234366 L67.3699214,8.82234366 L65.13534,8.82234366 C65.13534,9.68834058 65.4510681,10.4009839 66.0825241,10.9602736 C66.7139802,11.5195632 67.6920928,11.7992081 69.0168619,11.7992081 Z" id="sansfrais"></path>
                </g>
            </g>
            <line x1="48.5" y1="47.5" x2="120.762886" y2="47.5" id="Line" stroke="#81BC00" stroke-linecap="round"></line>
        </g>
    </g>
</svg>
