<svg xmlns="http://www.w3.org/2000/svg" viewBox="0 0 26.75 26.75" width="36" height="36">
    <defs>
        <style>.cls-1{fill:#81bc00;}.cls-2{fill:#fff;}</style>
    </defs>
    <title>4x</title>
    <path class="cls-1"
          d="M13.39,0A13.21,13.21,0,0,0,.05,13.38,13.21,13.21,0,0,0,13.39,26.75,13.21,13.21,0,0,0,26.7,13.38,13.21,13.21,0,0,0,13.39,0"/>
    <path class="cls-2"
          d="M21.66,18H19L17.85,15.9,16.67,18H14l2.47-3.61-2.43-3.56h2.64l1.13,2,1.13-2h2.63L19.2,14.37ZM9.48,15.24H5.1V7.32H7.64V13.1H9.48v-3H12v3h1.32v2.14H12v3H9.48Z"/>
</svg>
