<svg xmlns="http://www.w3.org/2000/svg" viewBox="0 0 26.75 26.75" width="36" height="36">
    <defs>
        <style>.cls-1{fill:#81bc00;}.cls-2{fill:#fff;}</style>
    </defs>
    <title>3x</title>
    <path class="cls-1"
          d="M13.39,0A13.21,13.21,0,0,0,.05,13.38,13.21,13.21,0,0,0,13.39,26.75,13.21,13.21,0,0,0,26.7,13.38,13.21,13.21,0,0,0,13.38,0"/>
    <path class="cls-2"
          d="M8,14.49a1.57,1.57,0,0,0,1.57,1.78,1.32,1.32,0,0,0,1.38-1.37c0-.86-.4-1.44-1.53-1.44H8.44V11.6h.94c1.07,0,1.38-.52,1.38-1.28A1.07,1.07,0,0,0,9.57,9.16c-1,0-1.32.61-1.32,1.52H5.84c0-1.77,1.1-3.34,3.67-3.34,1.92,0,3.63,1,3.63,2.92a2.37,2.37,0,0,1-1.53,2.31,2.55,2.55,0,0,1,1.7,2.51c0,2-1.77,3.13-3.75,3.13-2.58,0-4-1.52-4-3.72ZM21.66,18H19L17.85,15.9,16.67,18H14l2.47-3.61-2.43-3.56h2.64l1.13,2,1.13-2h2.63L19.2,14.37Z"/>
</svg>
