<svg xmlns="http://www.w3.org/2000/svg" xml:space="preserve" viewBox="0 0 70 70">
    <path fill="#fff" d="m59.05202574 17.024237.59551824.00078152c.16333768.00078152.32667536.00312608.49079456.00703368.29775912.0078152.64788008.02422712.9847152.08518568.31182648.05626944.57598024.14301816.83153728.27275048a2.7235972 2.7235972 0 0 1 1.19807016 1.19885168c.12973232.25477552.21569952.51892928.27196896.83153728.06017704.33370904.07737048.68461152.08440416.98393368.00468912.16255616.00703368.32589384.0078152.49079456.00156304.19772456.00156304.39701216.00156304.59551824v27.01870944c0 .19850608 0 .39701216-.00156304.5978628a20.2960744 20.2960744 0 0 1-.0078152.48845c-.0078152.29932216-.02422712.65022464-.08440416.98627824a2.92913696 2.92913696 0 0 1-.27196896.82919272 2.74782432 2.74782432 0 0 1-1.1996332 1.1996332 2.9267924 2.9267924 0 0 1-.82997424.27275048 6.73513936 6.73513936 0 0 1-.98237064.08440416c-.1641192.0039076-.3282384.00625216-.49470216.00625216-.19772456.00156304-.39701216.00156304-.59473672.00156304h-48.1103712c-.19616152 0-.39232304 0-.59082912-.00156304-.1641192 0-.3282384-.00234456-.48845-.00625216a6.82110656 6.82110656 0 0 1-.9847152-.08440416 2.89475008 2.89475008 0 0 1-.8323188-.273532 2.696244 2.696244 0 0 1-.69398976-.50486192 2.71031136 2.71031136 0 0 1-.50329888-.69398976 2.92054024 2.92054024 0 0 1-.27275048-.83153728 6.54288544 6.54288544 0 0 1-.08518568-.98393368 25.6221332 25.6221332 0 0 1-.00703368-.48923152l-.00078152-.4767272V21.37105124l.00078152-.47594568c.00078152-.16333768.00312608-.32667536.00703368-.49079456.0078152-.29775912.02422712-.64788008.08518568-.98549672a2.891624 2.891624 0 0 1 .27275048-.83075576 2.73063088 2.73063088 0 0 1 1.19807016-1.19807016 2.9072544 2.9072544 0 0 1 .83075576-.27196896 6.57180168 6.57180168 0 0 1 .98549672-.08518568c.16333768-.0039076.32667536-.00625216.48923152-.00703368l.59708128-.00156304h48.10411904"/>
    <path d="m59.05202574 17.024237.59551824.00078152c.16333768.00078152.32667536.00312608.49079456.00703368.29775912.0078152.64788008.02422712.9847152.08518568.31182648.05626944.57598024.14301816.83153728.27275048a2.7235972 2.7235972 0 0 1 1.19807016 1.19885168c.12973232.25477552.21569952.51892928.27196896.83153728.06017704.33370904.07737048.68461152.08440416.98393368.00468912.16255616.00703368.32589384.0078152.49079456.00156304.19772456.00156304.39701216.00156304.59551824v27.01870944c0 .19850608 0 .39701216-.00156304.5978628a20.2960744 20.2960744 0 0 1-.0078152.48845c-.0078152.29932216-.02422712.65022464-.08440416.98627824a2.92913696 2.92913696 0 0 1-.27196896.82919272 2.74782432 2.74782432 0 0 1-1.1996332 1.1996332 2.9267924 2.9267924 0 0 1-.82997424.27275048 6.73513936 6.73513936 0 0 1-.98237064.08440416c-.1641192.0039076-.3282384.00625216-.49470216.00625216-.19772456.00156304-.39701216.00156304-.59473672.00156304h-48.1103712c-.19616152 0-.39232304 0-.59082912-.00156304-.1641192 0-.3282384-.00234456-.48845-.00625216a6.82110656 6.82110656 0 0 1-.9847152-.08440416 2.89475008 2.89475008 0 0 1-.8323188-.273532 2.696244 2.696244 0 0 1-.69398976-.50486192 2.71031136 2.71031136 0 0 1-.50329888-.69398976 2.92054024 2.92054024 0 0 1-.27275048-.83153728 6.54288544 6.54288544 0 0 1-.08518568-.98393368 25.6221332 25.6221332 0 0 1-.00703368-.48923152l-.00078152-.4767272V21.37105124l.00078152-.47594568c.00078152-.16333768.00312608-.32667536.00703368-.49079456.0078152-.29775912.02422712-.64788008.08518568-.98549672a2.891624 2.891624 0 0 1 .27275048-.83075576 2.73063088 2.73063088 0 0 1 1.19807016-1.19807016 2.9072544 2.9072544 0 0 1 .83075576-.27196896 6.57180168 6.57180168 0 0 1 .98549672-.08518568c.16333768-.0039076.32667536-.00625216.48923152-.00703368l.59708128-.00156304h48.10411904m0-.78152H10.9479067l-.60098888.00078152c-.16880832.00078152-.33761664.00312608-.50642496.0078152a7.43928888 7.43928888 0 0 0-1.1019432.09690848 3.7356656 3.7356656 0 0 0-1.04801832.34543184 3.53715952 3.53715952 0 0 0-1.5395944 1.54037592 3.70284176 3.70284176 0 0 0-.34543184 1.04801832 7.33612824 7.33612824 0 0 0-.09769 1.1019432c-.0039076.1680268-.00625216.33683512-.00703368.50564344l-.00078152.60098888v27.01870944l.00078152.6017704c.00078152.16880832.00312608.33761664.0078152.50564344.01015976.3673144.03204232.73775488.09769 1.10116168.06564768.36965896.17427896.71274624.34465032 1.04801832A3.50824328 3.50824328 0 0 0 7.69131286 53.306303c.33527208.17115288.67835936.27900264 1.0472368.34543184.3634068.06486616.73384728.08674872 1.1019432.09690848.16880832.00468912.33683512.00703368.50642496.00703368.20006912.00156304.40091976.00156304.60098888.00156304h48.10411904c.20006912 0 .40091976 0 .60098888-.00156304.16880832-.00078152.33761664-.00312608.50642496-.00703368.3673144-.01015976.73775488-.03204232 1.1019432-.09690848a3.73097648 3.73097648 0 0 0 1.0472368-.34543184 3.50277264 3.50277264 0 0 0 1.54037592-1.54037592c.17115288-.33527208.27900264-.67835936.34465032-1.04801832.06564768-.3634068.08674872-.73384728.09690848-1.10116168.00468912-.16880832.00703368-.33761664.0078152-.50564344.00156304-.20085064.00156304-.40091976.00156304-.6017704V21.4906238c0-.20085064 0-.40091976-.00156304-.6017704a21.75126464 21.75126464 0 0 0-.0078152-.50564344 7.34472496 7.34472496 0 0 0-.09690848-1.1019432 3.70127872 3.70127872 0 0 0-.34465032-1.04801832 3.52152912 3.52152912 0 0 0-1.54037592-1.54037592 3.73097648 3.73097648 0 0 0-1.0472368-.34543184 7.45726384 7.45726384 0 0 0-1.1019432-.09690848c-.16958984-.00468912-.33839816-.00625216-.50642496-.0078152Z"/>
    <path d="M23.17166102 27.49816804c.54081184-.65569528.90578168-1.5669476.80652864-2.47507384-.78152.03204232-1.72637768.52205536-2.28281992 1.17540608-.5040804.57988784-.94016856 1.5083336-.81981448 2.39848488.86905024.06721072 1.75529392-.44312184 2.29610576-1.09881712zm2.24530696 5.76292848c-.01719344-1.96395976 1.602116-2.90881744 1.67714192-2.95570864-.91359688-1.328584-2.33049264-1.51302272-2.83535456-1.53334224-1.2074484-.11957256-2.35862736.7111832-2.96899448.7111832-.61271168 0-1.5552248-.69242672-2.55869648-.67132568-1.31607968.01875648-2.52978024.76510808-3.20735808 1.94285872-1.3637524 2.37816536-.34621336 5.89031624.98549672 7.81363696.65178768.9417316 1.42705552 1.99990968 2.44850216 1.9616152.98315216-.03829448 1.3520296-.63615728 2.53994-.63615728 1.18556584-.00156304 1.52083792.63459424 2.55635192.61661928 1.05661504-.02266408 1.7271592-.9612696 2.37503928-1.90769032.74478856-1.0902204 1.05348896-2.14918 1.06911936-2.20232336-.02110104-.01406736-2.05774216-.79089824-2.08118776-3.13936584zm12.57934592-5.76371c-.39388608-.37981872-.90187408-.67523328-1.50989664-.87842848-.60255192-.20085064-1.32623944-.30244824-2.15074304-.30244824a14.06736 14.06736 0 0 0-1.58101496.0820596 23.3205568 23.3205568 0 0 0-1.30826448.1836572l-.12738776.02188256V40.411223h1.26059176v-5.81685336c.42436536.07268136.9104708.11097584 1.44659352.11097584.71352776 0 1.38172736-.09143784 1.98662384-.27040592a4.43981512 4.43981512 0 0 0 1.59273776-.83075576 4.01857584 4.01857584 0 0 0 1.06364872-1.38250888c.2579016-.547064.38919696-1.19025496.38919696-1.91394248 0-.59864432-.09456392-1.1371116-.27900264-1.60055296a3.6614212 3.6614212 0 0 0-.78308304-1.20979296zm-1.15821264 5.27369696c-.64709856.54237488-1.56304.81746992-2.72516024.81746992-.31964168 0-.62208992-.01406736-.89952952-.03985752a4.220208 4.220208 0 0 1-.6330312-.10628672V27.5708494c.16646376-.03047928.37278504-.05939552.61505624-.08518568.30713736-.03282384.67679632-.04923576 1.10038016-.04923576a5.2439992 5.2439992 0 0 1 1.44034136.18678328 3.31598936 3.31598936 0 0 1 1.10741384.54237488c.30244824.234456.54003032.5392488.70493104.9065632.16646376.37200352.2500864.81590688.2500864 1.31842424-.00078152 1.0433292-.3243308 1.8443872-.96048808 2.38050992zm9.75493264 6.34750544c-.01406736-.39076-.019538-.78308304-.019538-1.17384304v-3.83804472c0-.45484464-.04610968-.91906752-.13598448-1.38016432a3.50199112 3.50199112 0 0 0-.52205536-1.28481888c-.25633856-.38450784-.61505624-.70180496-1.06364872-.94407616-.44859248-.24148968-1.0316064-.3634068-1.73419288-.3634068-.51267712 0-1.01363144.0664292-1.48645104.19850608a4.7203808 4.7203808 0 0 0-1.39032408.66116592l-.10237912.07111832.4259284.996438.15395944-.10394216a4.12017344 4.12017344 0 0 1 1.09100192-.51892928 4.07797136 4.07797136 0 0 1 1.20901144-.18600176c.52518144 0 .94485768.09534544 1.24417984.28291024.30401128.18990936.53299664.42514688.68070392.70024192.15395944.28369176.25477552.58535848.29932216.898748.04767272.32589384.0703368.6174008.0703368.8674872v.11097584c-1.86861432-.00859672-3.32771216.30244824-4.29679696.92688272-1.01675752.65491376-1.53256072 1.58726712-1.53256072 2.7704884 0 .34074272.06095856.68383.18131264 1.02300968.12191712.34308728.30713736.65022464.54940856.91281536.24383424.2657168.5587868.48219784.93547944.64397248.3751296.16333768.8166884.24539728 1.30982752.24539728a3.66767336 3.66767336 0 0 0 1.98037168-.54159336c.25946464-.1602116.49001304-.34230576.68695608-.53846728a3.8997848 3.8997848 0 0 0 .23992664-.26415376h.04845424l.11566496 1.12069968h1.2152636l-.03360536-.1797496a7.73548496 7.73548496 0 0 1-.11957256-1.113666zm-1.28012976-1.96630432c0 .13442144-.03204232.31886016-.09300088.54003032a2.7587656 2.7587656 0 0 1-.33917968.67445176 2.58995728 2.58995728 0 0 1-1.31998728.996438 3.08387792 3.08387792 0 0 1-1.01050536.15395944 2.0006912 2.0006912 0 0 1-.664292-.1133204 1.60289752 1.60289752 0 0 1-.5587868-.33449056 1.6646376 1.6646376 0 0 1-.39232304-.56816504c-.09925304-.22898536-.14927032-.51267712-.14927032-.84247856 0-.54003032.14536272-.97846304.43061752-1.29888624a2.8291024 2.8291024 0 0 1 1.12382576-.761982 5.76527304 5.76527304 0 0 1 1.51849336-.34621336 13.83212248 13.83212248 0 0 1 1.45440872-.06330312zm9.8354292-6.79375336-2.3523752 6.39517816c-.14692576.38607088-.28369176.77526784-.40873496 1.15430504-.06095856.18912784-.11879104.36809592-.175842.53846728h-.04454664a47.5515844 47.5515844 0 0 0-.1797496-.5587868c-.12191712-.3751296-.25321248-.74322552-.38763392-1.094128l-2.51571288-6.43503568h-1.34499592l3.5988996 9.25163376c.09456392.2227332.10863128.32511232.10863128.36653288 0 .01250432-.00468912.08831176-.11019432.36965896a6.7093492 6.7093492 0 0 1-.76354504 1.41924032c-.28838088.39232304-.55253464.7111832-.78777216.94642072-.273532.273532-.55566072.49782824-.84247856.66741808-.29307.17271592-.56034984.312608-.7971504.4181132l-.13598448.06095856.43843272 1.06521176.13911056-.05158032c.11410192-.0429836.3282384-.1406736.65335072-.29932216.3282384-.16177464.6916452-.4181132 1.07927912-.76510808a5.58239736 5.58239736 0 0 0 .90812624-1.02300968c.2657168-.38138176.5314336-.82919272.79246128-1.32623944.2579016-.4962652.5158032-1.06052264.76745264-1.67870496.25164944-.6213084.52205536-1.31607968.801058-2.06243128l2.90647288-7.35879232z"/>
</svg>