<svg width="24" height="24" xmlns="http://www.w3.org/2000/svg"><g id="Symbols" stroke="none" stroke-width="1" fill="none" fill-rule="evenodd"><g id="General/Icons/Icon-24x24---Lock" fill="#23201F" fill-rule="nonzero"><path d="M18.083 22.543c.642 0 1.2-.228 1.672-.684.473-.456.71-1.022.71-1.698v-9.986c0-.676-.237-1.242-.71-1.698a2.33 2.33 0 0 0-1.672-.684h-1.876V5.664c0-1.183-.405-2.18-1.216-2.99-.811-.812-1.808-1.217-2.991-1.217s-2.18.405-2.99 1.216c-.812.811-1.217 1.808-1.217 2.991v2.129H5.917c-.642 0-1.2.228-1.672.684-.473.456-.71 1.022-.71 1.698v9.986c0 .676.237 1.242.71 1.698a2.33 2.33 0 0 0 1.672.684h12.166Zm-3.447-14.75H9.364V5.664c0-.743.254-1.369.76-1.875.507-.507 1.133-.76 1.876-.76.743 0 1.369.253 1.875.76.507.506.76 1.132.76 1.875v2.129Zm3.447 13.179H5.917a.73.73 0 0 1-.532-.228.79.79 0 0 1-.228-.583v-9.986a.79.79 0 0 1 .228-.583.73.73 0 0 1 .532-.228h12.166a.73.73 0 0 1 .532.228.79.79 0 0 1 .228.583v9.986a.79.79 0 0 1-.228.583.73.73 0 0 1-.532.228ZM12 16.765c.44 0 .811-.16 1.115-.482.304-.32.456-.693.456-1.115 0-.422-.152-.794-.456-1.115A1.477 1.477 0 0 0 12 13.57c-.44 0-.811.16-1.115.482a1.572 1.572 0 0 0-.456 1.115c0 .422.152.794.456 1.115.304.321.676.482 1.115.482Z" id="ﰣ"/></g></g></svg>