<svg width="48" height="31" xmlns="http://www.w3.org/2000/svg"><g id="Symbols" stroke="none" stroke-width="1" fill="none" fill-rule="evenodd"><g id="General/Icons/Logos-cb/Visa-dark"><rect id="Rectangle" fill="#D5D6D8" x="0" y="0" width="48" height="30.72" rx="3.84"/><g id="Components/Icons/Cards/Visa" transform="translate(4.48 8.96)" fill-rule="nonzero"><g id="Visa_Inc._logo"><path id="polygon9" fill="#00579F" d="M16.871 12.366h-3.203L15.67 0h3.204z"/><path d="M27.986.51C27.387.267 26.437 0 25.262 0c-3 0-5.112 1.63-5.125 3.96-.025 1.72 1.512 2.675 2.662 3.248 1.175.586 1.575.968 1.575 1.49-.012.802-.95 1.172-1.824 1.172-1.213 0-1.863-.19-2.85-.637l-.4-.191-.425 2.687c.712.33 2.025.624 3.387.637 3.188 0 5.263-1.605 5.287-4.088.012-1.363-.8-2.407-2.55-3.26-1.062-.548-1.713-.917-1.713-1.478.013-.51.55-1.03 1.75-1.03a5.08 5.08 0 0 1 2.263.457l.274.128.413-2.585Z" id="path11" fill="#00579F"/><path d="M32.106 7.985c.254-.71 1.231-3.46 1.231-3.46-.013.027.254-.723.406-1.184l.215 1.066s.584 2.96.711 3.578h-2.563ZM35.912 0h-2.385c-.735 0-1.294.223-1.611 1.026l-4.58 11.34h3.235l.647-1.855h3.96c.088.434.367 1.855.367 1.855H38.4L35.912 0Z" id="path13" fill="#00579F"/><path d="M11 .65 7.929 8.649l-.336-1.622c-.568-1.871-2.35-3.905-4.338-4.916L6.07 12.366h3.318L14.319.651H11Z" id="path15" fill="#00579F"/><path d="M5.229 0H.053L0 .242c4.038.993 6.712 3.388 7.81 6.266L6.685 1.006C6.5.242 5.93.026 5.229 0Z" id="path17" fill="#FAA61A"/></g></g><rect id="Rectangle" fill="#D5D6D8" style="mix-blend-mode:color" x="0" y="0" width="48" height="30.72" rx="3.84"/></g></g></svg>