<?xml version="1.0" encoding="UTF-8"?>
<svg id="Livello_1" xmlns="http://www.w3.org/2000/svg" version="1.1" viewBox="0 0 395 89">
  <!-- Generator: Adobe Illustrator 29.0.1, SVG Export Plug-In . SVG Version: 2.1.0 Build 192)  -->
  <defs>
    <style>
      .st0 {
        fill: #f7cbcf;
      }
    </style>
  </defs>
  <path d="M43.11.39h308.78c24.36,0,44.11,19.75,44.11,44.11h0c0,24.36-19.75,44.11-44.11,44.11H43.11C18.75,88.61-1,68.86-1,44.5h0C-1,20.14,18.75.39,43.11.39Z"/>
  <g>
    <path class="st0" d="M49,65.97c-.78-.02-1.43-.27-1.97-.78-.19-.19-.38-.4-.57-.61-7.25-8.28-14.47-16.55-21.72-24.83-.19-.21-.38-.4-.55-.63-.78-1.07-.74-2.37.06-3.38.17-.21.38-.4.55-.61,3.21-3.32,6.45-6.66,9.68-9.98.19-.19.38-.4.59-.59,1.09-.95,2.56-.95,3.65,0,.27.23.5.48.74.74,2.27,2.33,4.54,4.68,6.81,7.02.25.25.48.5.74.74.34.34.76.55,1.22.65.9.23,1.72,0,2.44-.57.27-.23.5-.48.76-.74,2.23-2.29,4.43-4.56,6.66-6.85.25-.25.48-.53.74-.74,1.09-.99,2.65-1.01,3.74,0,.21.19.38.38.59.59,3.21,3.3,6.39,6.6,9.6,9.89.13.13.27.27.4.44.95,1.05,1.05,2.5.13,3.68-.15.19-.29.36-.46.55-7.12,8.13-14.2,16.28-21.32,24.41-.23.27-.46.55-.71.8-.46.55-1.11.78-1.81.84l.04-.04Z"/>
    <path class="st0" d="M255.44,52.23v-23.46c0-.38,0-.8.02-1.18,0-.13.19-.29.32-.32.19,0,.38-.04.59-.04h6.85c.38,0,.53.15.55.48v1.05c0,.23.02.46.04.69,0,.08.21.17.27.13.29-.19.59-.4.88-.59,2.18-1.45,4.56-2.27,7.16-2.42,5.63-.29,10.08,1.93,13.44,6.39,1.58,2.08,2.54,4.41,3.07,6.95.29,1.47.48,2.96.44,4.43-.08,3.15-.8,6.13-2.39,8.91-2.44,4.24-6.09,6.78-10.84,7.79-1.72.36-3.44.38-5.17.19-1.89-.23-3.65-.9-5.27-1.93-.34-.21-.65-.44-.99-.65-.13-.08-.34,0-.34.19v17.69c0,.65-.08.74-.74.74h-7.31c-.44,0-.59-.13-.59-.55v-24.51.02ZM264.09,44.02h0v4.47c0,.38.11.69.34.97.84,1.05,1.83,1.93,3.05,2.56,2.18,1.13,4.5,1.43,6.85.74,2.58-.74,4.33-2.46,5.36-4.92.59-1.41.8-2.86.71-4.39-.08-1.85-.61-3.55-1.66-5.08-1.2-1.76-2.81-2.92-4.92-3.38-1.13-.25-2.27-.23-3.4-.04-2.42.44-4.39,1.62-5.97,3.51-.27.32-.38.65-.38,1.07.02,1.51,0,3,0,4.5h.02Z"/>
    <path class="st0" d="M245.48,44.02v15.33c0,1.41.13,1.37-1.3,1.37h-6.13c-.8,0-.86-.08-.88-.86,0-.48-.02-.95-.06-1.41,0-.04-.13-.11-.19-.11-.08,0-.15.04-.21.08-.17.11-.32.23-.48.34-2.44,1.83-5.21,2.65-8.26,2.63-5.02-.04-10.33-2.6-13.36-7.56-1.47-2.39-2.33-4.96-2.63-7.73-.36-3.19.06-6.28,1.24-9.24,1.11-2.84,2.86-5.23,5.27-7.12,2.08-1.62,4.43-2.69,7.06-3.02,3.84-.48,7.41.21,10.65,2.48.23.17.46.29.69.44.04,0,.15-.02.19-.08s.08-.13.08-.21v-.95c0-1.11,0-1.13,1.09-1.13h6.13c.27,0,.55,0,.82.08.08,0,.19.13.25.23.04.11.04.23.04.34v1.3c-.02,4.89-.02,9.83-.02,14.81ZM236.81,44.02h0v-4.47c0-.42-.13-.76-.38-1.07-1.3-1.55-2.88-2.65-4.81-3.23-1.45-.44-2.94-.55-4.43-.23-2.14.42-3.8,1.62-5.02,3.42-.8,1.2-1.3,2.5-1.51,3.93-.34,2.12-.11,4.16.84,6.09,1.01,2.08,2.58,3.51,4.79,4.29,1.01.36,2.06.46,3.13.44,2.92-.13,5.27-1.37,7.1-3.63.23-.27.34-.59.34-.97-.04-1.51-.02-3-.02-4.5l-.02-.06Z"/>
    <path class="st0" d="M328.05,43.95v16.24c0,.34-.15.46-.53.48h-7.31c-.27,0-.44-.17-.44-.44,0-.5,0-1.01-.02-1.53,0-.13,0-.23-.06-.34,0-.04-.15-.08-.19-.08-.21.11-.4.23-.59.38-.84.65-1.76,1.18-2.75,1.62-1.53.65-3.13,1.01-4.81,1.05-4.77.13-8.86-1.51-12.18-4.94-1.87-1.93-3.11-4.24-3.91-6.78-.76-2.48-1.01-5-.76-7.56.27-2.9,1.16-5.61,2.69-8.09,1.37-2.21,3.15-4.01,5.38-5.34,2.21-1.3,4.58-2.04,7.14-2.1,2.48-.08,4.85.36,7.08,1.47.67.34,1.3.71,1.93,1.13.23.17.46.29.69.44.08.04.27-.04.27-.13,0-.15.02-.32.02-.46v-1.3c0-.27.15-.44.42-.46h6.97c.23,0,.46.04.69.08.06,0,.13.08.17.17.04.11.06.23.06.34v1.05c.02,5.02.02,10.04.02,15.06v.04ZM319.38,43.95v-4.47c0-.42-.15-.74-.4-1.05-1.55-1.83-3.49-3.02-5.86-3.44-1.45-.25-2.9-.23-4.29.27-2.08.71-3.57,2.08-4.58,4.01-1.41,2.73-1.58,5.57-.48,8.42.92,2.44,2.65,4.14,5.13,5,.99.34,1.97.44,3,.42,2.92-.11,5.27-1.32,7.12-3.59.25-.32.38-.67.38-1.07v-4.5h-.02Z"/>
    <path class="st0" d="M185.76,60.55s-.15.11-.23.13c-.15.02-.32.04-.46.04h-6.85c-.15,0-.32-.02-.46-.08-.06,0-.13-.08-.17-.15-.04-.11-.06-.23-.08-.34v-1.53c0-.11,0-.25-.17-.27-.11,0-.23.02-.32.08-.13.08-.25.19-.38.27-2.48,1.87-5.27,2.71-8.36,2.67-4.94-.04-10.27-2.54-13.36-7.58-1.53-2.54-2.44-5.27-2.65-8.21-.23-2.96.13-5.8,1.2-8.55,1.05-2.69,2.63-5,4.83-6.87,2.18-1.85,4.68-3.05,7.52-3.42,3.82-.53,7.44.19,10.65,2.44.25.19.53.34.8.48.02,0,.19-.06.19-.11.02-.38.04-.8.06-1.18q0-1.11,1.11-1.11h6.72c.34,0,.46.17.48.55v31.59c-.02.42,0,.8-.11,1.18l.02-.02ZM177.17,43.93c0-1.41-.02-2.84,0-4.24,0-.59-.19-1.05-.59-1.47-2.1-2.31-4.68-3.49-7.83-3.38-1.79.06-3.36.69-4.73,1.85-1.01.84-1.76,1.89-2.29,3.11-1.05,2.44-1.22,4.94-.38,7.48.86,2.6,2.58,4.43,5.19,5.4,1.01.38,2.06.48,3.13.44,2.84-.11,5.13-1.26,6.95-3.42.34-.4.53-.84.53-1.39-.02-1.47,0-2.92,0-4.37h.02Z"/>
    <path class="st0" d="M343.24,27.3c.23.46.42.84.59,1.24,2.75,5.82,5.48,11.66,8.23,17.48.17.34.27.74.59,1.01.25-.11.29-.34.4-.55.55-1.26,1.11-2.52,1.64-3.78,2.06-4.75,4.14-9.52,6.2-14.26.15-.36.34-.71.5-1.09.23-.02.46-.08.69-.11h7.31c.27,0,.55.04.82.08.08,0,.15.08.13.19-.06.23-.13.44-.21.65-.9,2.04-1.83,4.1-2.73,6.13-6.2,13.93-12.39,27.85-18.57,41.78-.19.38-.32.8-.61,1.18-.19,0-.38.04-.57.04h-7.67c-.15,0-.32,0-.46-.06-.04,0-.13-.13-.11-.19.04-.19.11-.38.19-.55.53-1.2,1.05-2.37,1.58-3.55,2.12-4.77,4.26-9.54,6.39-14.3.15-.34.27-.65.44-.97.11-.23.11-.44,0-.69-.19-.36-.34-.71-.5-1.05-4.39-9.14-8.76-18.27-13.15-27.41-.15-.32-.27-.65-.42-.97-.02-.08.08-.27.19-.27.15,0,.32-.02.46-.02h7.9c.21,0,.44.02.78.06l-.02-.02Z"/>
    <path class="st0" d="M141.65,48.83c.19.13.38.23.55.38,1.93,1.53,3.95,2.98,5.82,4.6.02.02.02.08.04.11,0,.08-.02.17-.08.23-1.81,2.5-4.03,4.5-6.87,5.76-1.81.82-3.72,1.28-5.67,1.41-1.05.08-2.12.08-3.17.02-7.06-.4-13.28-5.1-15.33-12.29-.59-2.04-.84-4.08-.65-6.18.48-6.13,3.3-10.9,8.63-14.05,2.48-1.47,5.21-2.16,8.09-2.25,3.21-.11,6.24.59,9.05,2.18,1.83,1.03,3.42,2.35,4.75,3.97.11.13.19.25.25.38.02.06,0,.17-.02.23-.13.15-.25.29-.4.44-1.62,1.49-3.26,2.96-4.87,4.43-.15.13-.29.25-.44.38-.13.11-.29.08-.42-.06-.19-.21-.36-.42-.55-.61-.65-.69-1.37-1.3-2.16-1.81-3-1.87-6.93-1.66-9.64.36-1.62,1.22-2.71,2.84-3.26,4.79-.55,2.02-.53,4.03.17,6.03,1.28,3.78,4.54,5.57,7.58,5.78,3.19.21,5.73-1.01,7.79-3.38.23-.27.44-.55.69-.8.02-.02.08-.02.15-.06l-.02.02Z"/>
    <path class="st0" d="M109.91,29.99c-1.39,2.12-2.58,4.24-3.99,6.24,0,.02-.08.02-.17.06-.27-.17-.57-.34-.86-.53-1.16-.71-2.37-1.24-3.7-1.47-1.2-.23-2.44-.21-3.61.15-.46.13-.9.32-1.26.61-.23.19-.48.42-.65.67-.57.82-.46,1.76.25,2.46.32.29.67.55,1.05.74.57.27,1.16.53,1.72.74,1.07.4,2.14.76,3.21,1.16,1.16.4,2.29.86,3.36,1.43.84.44,1.64.95,2.35,1.55,2.02,1.66,3.11,3.82,3.26,6.43.08,1.26,0,2.52-.38,3.72-.59,1.76-1.62,3.21-3.05,4.39-1.45,1.2-3.11,1.97-4.89,2.5-1.64.46-3.32.63-5,.59-3.74-.11-7.18-1.18-10.4-3.07-.57-.34-1.11-.74-1.66-1.11-.32-.21-.34-.36-.13-.69,1.2-1.85,2.39-3.68,3.61-5.52.06-.08.15-.19.23-.25.04-.04.17-.06.21-.02.19.13.38.27.59.4,2.44,1.83,5.21,2.69,8.26,2.69.59,0,1.18-.06,1.74-.27.34-.13.65-.25.95-.44.27-.17.5-.38.71-.59.8-.88.8-2.08.02-3-.32-.36-.69-.65-1.09-.88-.53-.27-1.05-.55-1.58-.78-1.01-.4-2.06-.76-3.09-1.16-.99-.38-1.97-.76-2.96-1.18-.74-.29-1.41-.69-2.08-1.11s-1.3-.9-1.85-1.45c-1.26-1.26-2.04-2.75-2.29-4.54-.44-3.26.53-6.05,2.88-8.34,1.47-1.43,3.23-2.33,5.19-2.92,1.09-.34,2.23-.5,3.36-.55,3.53-.15,6.85.65,10.02,2.23.46.23.88.53,1.3.8.11.08.19.21.4.38v-.04Z"/>
    <path class="st0" d="M195.84,36.18V13.43c0-1.97-.21-1.7,1.66-1.72h5.55c.36,0,.69,0,1.05.02.21,0,.34.17.36.38v48.23c0,.13-.17.32-.27.34-.15,0-.32.04-.46.04h-7.06c-.15,0-.32-.02-.46-.04-.13,0-.27-.19-.29-.34,0-.13-.02-.23-.02-.36v-1.05c-.02-7.58-.02-15.14-.02-22.73l-.02-.02Z"/>
  </g>
</svg>