<svg width="33" height="22" xmlns="http://www.w3.org/2000/svg"><g id="Page-1" stroke="none" stroke-width="1" fill="none" fill-rule="evenodd"><g id="Frise-dark" transform="translate(-37)"><g id="Mastercard-dark" transform="translate(37)"><rect id="Rectangle-Copy" fill="#D5D6D8" style="mix-blend-mode:color" x="0" y="0" width="33" height="22" rx="2"/><g id="ma_symbol" transform="translate(5.03 3.91)" fill-rule="nonzero"><g id="Group"><path id="Rectangle" fill="#FF5F00" d="M8.372 1.517h6.201v11.142H8.372z"/><path d="M8.765 7.088a7.13 7.13 0 0 1 2.697-5.57c-3.07-2.422-7.54-1.89-9.96 1.2a7.083 7.083 0 0 0 1.22 9.941 7.068 7.068 0 0 0 8.76 0 7.09 7.09 0 0 1-2.717-5.57Z" id="Path" fill="#EB001B"/><path d="M22.939 7.088a7.082 7.082 0 0 1-7.087 7.087 7.014 7.014 0 0 1-4.37-1.516c3.07-2.421 3.602-6.87 1.18-9.96a7.447 7.447 0 0 0-1.18-1.182c3.07-2.42 7.54-1.89 9.94 1.201a7.014 7.014 0 0 1 1.517 4.37Z" id="Path" fill="#F79E1B"/></g></g><rect id="Rectangle" fill="#D5D6D8" style="mix-blend-mode:color" x="0" y="0" width="33" height="22" rx="2"/></g></g></g></svg>