<?xml version="1.0" encoding="UTF-8"?>
<svg width="24px" height="24px" viewBox="0 0 24 24" version="1.1" xmlns="http://www.w3.org/2000/svg" xmlns:xlink="http://www.w3.org/1999/xlink">
    <title>General/Icons/Icon 24x24 - Lock</title>
    <g id="Symbols" stroke="none" stroke-width="1" fill="none" fill-rule="evenodd">
        <g id="General/Icons/Icon-24x24---Lock" fill="#23201F" fill-rule="nonzero">
            <path d="M18.08256,22.543104 C18.724608,22.543104 19.282176,22.315008 19.755264,21.858816 C20.228352,21.402624 20.464896,20.836608 20.464896,20.160768 L20.464896,20.160768 L20.464896,10.175232 C20.464896,9.499392 20.228352,8.933376 19.755264,8.477184 C19.282176,8.020992 18.724608,7.792896 18.08256,7.792896 L18.08256,7.792896 L16.207104,7.792896 L16.207104,5.664 C16.207104,4.48128 15.8016,3.484416 14.990592,2.673408 C14.179584,1.8624 13.18272,1.456896 12,1.456896 C10.81728,1.456896 9.820416,1.8624 9.009408,2.673408 C8.1984,3.484416 7.792896,4.48128 7.792896,5.664 L7.792896,5.664 L7.792896,7.792896 L5.91744,7.792896 C5.275392,7.792896 4.717824,8.020992 4.244736,8.477184 C3.771648,8.933376 3.535104,9.499392 3.535104,10.175232 L3.535104,10.175232 L3.535104,20.160768 C3.535104,20.836608 3.771648,21.402624 4.244736,21.858816 C4.717824,22.315008 5.275392,22.543104 5.91744,22.543104 L5.91744,22.543104 L18.08256,22.543104 Z M14.635776,7.792896 L9.364224,7.792896 L9.364224,5.664 C9.364224,4.920576 9.617664,4.295424 10.124544,3.788544 C10.631424,3.281664 11.256576,3.028224 12,3.028224 C12.743424,3.028224 13.368576,3.281664 13.875456,3.788544 C14.382336,4.295424 14.635776,4.920576 14.635776,5.664 L14.635776,5.664 L14.635776,7.792896 Z M18.08256,20.971776 L5.91744,20.971776 C5.714688,20.971776 5.53728,20.895744 5.385216,20.74368 C5.233152,20.591616 5.15712,20.397312 5.15712,20.160768 L5.15712,20.160768 L5.15712,10.175232 C5.15712,9.938688 5.233152,9.744384 5.385216,9.59232 C5.53728,9.440256 5.714688,9.364224 5.91744,9.364224 L5.91744,9.364224 L18.08256,9.364224 C18.285312,9.364224 18.46272,9.440256 18.614784,9.59232 C18.766848,9.744384 18.84288,9.938688 18.84288,10.175232 L18.84288,10.175232 L18.84288,20.160768 C18.84288,20.397312 18.766848,20.591616 18.614784,20.74368 C18.46272,20.895744 18.285312,20.971776 18.08256,20.971776 L18.08256,20.971776 Z M12,16.764672 C12.439296,16.764672 12.811008,16.60416 13.115136,16.283136 C13.419264,15.962112 13.571328,15.5904 13.571328,15.168 C13.571328,14.7456 13.419264,14.373888 13.115136,14.052864 C12.811008,13.73184 12.439296,13.571328 12,13.571328 C11.560704,13.571328 11.188992,13.73184 10.884864,14.052864 C10.580736,14.373888 10.428672,14.7456 10.428672,15.168 C10.428672,15.5904 10.580736,15.962112 10.884864,16.283136 C11.188992,16.60416 11.560704,16.764672 12,16.764672 Z" id="ﰣ"></path>
        </g>
    </g>
</svg>